<svg xmlns="http://www.w3.org/2000/svg" viewBox="0 0 339.32 384"><defs><style>.cls-1{fill:none;}.cls-2{fill:#9fc6ea;}.cls-3{fill:#2c82c4;}</style></defs><title>Agility</title><g id="Слой_2" data-name="Слой 2"><g id="Слой_1-2" data-name="Слой 1"><path class="cls-1" d="M184,206.6,194,190l-16.59,10A25.61,25.61,0,0,1,184,206.6Z"/><path class="cls-1" d="M163,231.55a10.5,10.5,0,0,0,8.66-4.57l.62-1A10.5,10.5,0,0,0,163,210.55a10.45,10.45,0,0,0-4.91,1.23l-1,.61A10.5,10.5,0,0,0,163,231.55Z"/><path class="cls-1" d="M292.83,233.2a4.34,4.34,0,0,1-.52-.09,129.64,129.64,0,0,1-2,13.61A116.15,116.15,0,0,0,292.83,233.2Z"/><path class="cls-1" d="M305.71,255.22a6.05,6.05,0,0,1,1,1c.74-3.06,1.4-6.15,1.95-9.26a4.42,4.42,0,0,1-.91.36A45.18,45.18,0,0,1,305.71,255.22Z"/><path class="cls-1" d="M33.1,151.4l-.54-.29c-.31.58-.63,1.16-.94,1.75C32.11,152.36,32.59,151.87,33.1,151.4Z"/><path class="cls-1" d="M291.58,286.4a48,48,0,0,0,3.66-5.28c-1.22,1.7-2.5,3.36-3.81,5Z"/><path class="cls-1" d="M43,137.06c2.75-2.89,5.11-6.13,7.6-9.24C47.88,130.78,45.33,133.86,43,137.06Z"/><path class="cls-1" d="M48,221.05A114.93,114.93,0,1,0,163,106.13,115.06,115.06,0,0,0,48,221.05Zm32.62,7.5H64.14a7.5,7.5,0,1,1,0-15h16.5a7.5,7.5,0,0,1,0,15Zm17.75,67.67a7.5,7.5,0,1,1,2.2-5.31A7.54,7.54,0,0,1,98.39,296.22Zm72.06,23.64a7.5,7.5,0,0,1-15,0v-16.5a7.5,7.5,0,0,1,15,0Zm74.8-106.31h16.51a7.5,7.5,0,0,1,0,15H245.25a7.5,7.5,0,0,1,0-15Zm-17.73-67.67a7.5,7.5,0,1,1-2.2,5.3A7.55,7.55,0,0,1,227.52,145.88Zm0,139.73a7.5,7.5,0,1,1-2.2,5.3A7.55,7.55,0,0,1,227.52,285.61ZM155.45,122.24a7.5,7.5,0,0,1,15,0v16.51a7.5,7.5,0,0,1-15,0Zm-7.28,78.05a19.21,19.21,0,0,1,2.24-1.43l61.91-37.48a7.5,7.5,0,0,1,10.3,10.3l-37.47,61.9a18.71,18.71,0,0,1-1.49,2.33,25.49,25.49,0,1,1-35.49-35.62ZM87.78,145.88a7.52,7.52,0,1,1-2.19,5.3A7.59,7.59,0,0,1,87.78,145.88Z"/><path class="cls-1" d="M295.26,62a7.82,7.82,0,0,0-11.08,0L277,69.15l3.54,3.55h0l30.76,30.76h0l3.54,3.54L322,99.82a7.83,7.83,0,0,0,0-11.08Z"/><polygon class="cls-1" points="201.2 33 201.2 15 124.7 15 124.7 33 141.2 33 201.2 33"/><path class="cls-1" d="M287.81,116.34l7.58-7.58L275.23,88.61l-7.57,7.58c3.62,3,7.13,6.25,10.51,9.64S284.77,112.73,287.81,116.34Z"/><path class="cls-1" d="M148.7,58.72c4.72-.41,9.48-.62,14.25-.62s9.54.22,14.25.62V48H148.7Z"/><path class="cls-2" d="M288.69,299.06a146.87,146.87,0,0,0,18-42.85,6.05,6.05,0,0,0-1-1,45.18,45.18,0,0,0,2-7.91,4.42,4.42,0,0,0,.91-.36,149.07,149.07,0,0,0,2.27-25.9c0-81.58-66.37-148-147.95-148A147.31,147.31,0,0,0,81.61,97.45a7.49,7.49,0,0,1-9.54-1.09,148.78,148.78,0,0,0-12.87,9.46,7.5,7.5,0,0,1-11,10.16l-.07-.08c-.54.55-1.08,1.09-1.61,1.64-3.1,3.23-6,6.62-8.83,10.13l.52.31a7.5,7.5,0,0,1,2,10.42c-2.78,4.12-5.32,8.37-7.66,12.71l.54.29c-.51.47-1,1-1.48,1.46A147.3,147.3,0,0,0,15,221.05c0,81.58,66.37,148,148,148a147.35,147.35,0,0,0,80.64-23.89,7.49,7.49,0,0,1,10.2,1.95c5.13-3.54,9.28-8.38,13.06-13.67a7.5,7.5,0,0,1,1.46-8.47l.25-.26a7.49,7.49,0,0,1,9.36-1.08c4-3.72,7.88-7.58,11.48-11.65.7-.79,1.36-1.58,2-2.39l-.28-.14A7.51,7.51,0,0,1,288.69,299.06Zm2.89-12.66-.15-.29c1.31-1.63,2.59-3.29,3.81-5A48,48,0,0,1,291.58,286.4Zm-241-158.58c-2.49,3.11-4.85,6.35-7.6,9.24C45.33,133.86,47.88,130.78,50.56,127.82ZM163,351C91.31,351,33,292.69,33,221.05S91.31,91.13,163,91.13s129.93,58.28,129.93,129.92c0,4.07-.2,8.09-.57,12.06a4.34,4.34,0,0,0,.52.09,116.15,116.15,0,0,1-2.5,13.52C278.38,306.11,225.81,351,163,351Z"/><path class="cls-3" d="M243.59,345.11A147.35,147.35,0,0,1,163,369C81.37,369,15,302.63,15,221.05a147.3,147.3,0,0,1,16.62-68.19c.31-.59.63-1.17.94-1.75,2.34-4.34,4.88-8.59,7.66-12.71a7.5,7.5,0,0,0-2-10.42l-.52-.31A7.5,7.5,0,0,0,27.79,130a163,163,0,0,0,224,227.68A7.49,7.49,0,0,0,254,347.31l-.18-.25A7.49,7.49,0,0,0,243.59,345.11Z"/><path class="cls-3" d="M268.56,324.66l-.25.26a7.5,7.5,0,0,0-1.46,8.47,7.61,7.61,0,0,0,1.5,2.14,7.52,7.52,0,0,0,10.61,0l.31-.32a7.5,7.5,0,0,0-.11-10.61,7.22,7.22,0,0,0-1.24-1A7.49,7.49,0,0,0,268.56,324.66Z"/><path class="cls-3" d="M305.87,51.36a22.83,22.83,0,0,0-32.29,0l-12.5,12.49a7.51,7.51,0,0,0,0,10.6L264.63,78l-9,9A160.91,160.91,0,0,0,192.2,60.71V48h16.5a7.5,7.5,0,0,0,7.5-7.5V7.5A7.5,7.5,0,0,0,208.7,0H117.2a7.5,7.5,0,0,0-7.5,7.5v33a7.5,7.5,0,0,0,7.5,7.5h16.5V60.73A161.94,161.94,0,0,0,73.35,84.92a7.51,7.51,0,0,0-2.13,10.39,6.73,6.73,0,0,0,.85,1,7.49,7.49,0,0,0,9.54,1.09A147.31,147.31,0,0,1,163,73.1c81.58,0,148,66.37,148,148a149.07,149.07,0,0,1-2.27,25.9c-.55,3.11-1.21,6.2-1.95,9.26a146.87,146.87,0,0,1-18,42.85,7.51,7.51,0,0,0,2.41,10.34l.28.14a7.41,7.41,0,0,0,3.67,1,7.52,7.52,0,0,0,6.38-3.54A163.14,163.14,0,0,0,297,128.36l9-9,3.54,3.55a7.52,7.52,0,0,0,10.61,0l12.49-12.5a22.84,22.84,0,0,0,0-32.29ZM275.23,88.61l20.16,20.15-7.58,7.58c-3-3.61-6.25-7.13-9.64-10.51s-6.89-6.59-10.51-9.64Zm-98-29.89c-4.71-.4-9.46-.62-14.25-.62s-9.53.21-14.25.62V48h28.5ZM124.7,33V15h76.5V33H124.7ZM322,99.82,314.85,107l-3.54-3.54h0L280.54,72.7h0L277,69.15,284.18,62a7.82,7.82,0,0,1,11.08,0L322,88.74A7.83,7.83,0,0,1,322,99.82Z"/><path class="cls-3" d="M163,146.25a7.5,7.5,0,0,0,7.5-7.5V122.24a7.5,7.5,0,0,0-15,0v16.51A7.5,7.5,0,0,0,163,146.25Z"/><path class="cls-3" d="M232.82,158.68a7.49,7.49,0,1,0-5.3-2.19A7.58,7.58,0,0,0,232.82,158.68Z"/><path class="cls-3" d="M237.75,221.05a7.5,7.5,0,0,0,7.5,7.5h16.51a7.5,7.5,0,0,0,0-15H245.25A7.5,7.5,0,0,0,237.75,221.05Z"/><path class="cls-3" d="M232.82,298.41a7.49,7.49,0,1,0-5.3-2.19A7.54,7.54,0,0,0,232.82,298.41Z"/><path class="cls-3" d="M163,295.86a7.5,7.5,0,0,0-7.5,7.5v16.5a7.5,7.5,0,0,0,15,0v-16.5A7.5,7.5,0,0,0,163,295.86Z"/><path class="cls-3" d="M93.09,283.41a7.51,7.51,0,1,0,5.3,2.2A7.59,7.59,0,0,0,93.09,283.41Z"/><path class="cls-3" d="M88.14,221.05a7.5,7.5,0,0,0-7.5-7.5H64.14a7.5,7.5,0,1,0,0,15h16.5A7.5,7.5,0,0,0,88.14,221.05Z"/><path class="cls-3" d="M93.09,158.68a7.48,7.48,0,1,0-5.31-2.19A7.58,7.58,0,0,0,93.09,158.68Z"/><path class="cls-3" d="M163,246.55a25.49,25.49,0,0,0,20.71-10.64,18.71,18.71,0,0,0,1.49-2.33l37.47-61.9a7.5,7.5,0,0,0-10.3-10.3l-61.91,37.48a19.21,19.21,0,0,0-2.24,1.43A25.49,25.49,0,0,0,163,246.55ZM194,190,184,206.6a25.61,25.61,0,0,0-6.55-6.54Zm-37,22.37,1-.61a10.48,10.48,0,0,1,15.41,9.27,10.56,10.56,0,0,1-1.22,4.91l-.62,1A10.5,10.5,0,1,1,157,212.39Z"/><path class="cls-3" d="M292.31,233.11c.37-4,.57-8,.57-12.06,0-71.64-58.29-129.92-129.93-129.92S33,149.41,33,221.05,91.31,351,163,351c62.86,0,115.43-44.87,127.38-104.26A129.64,129.64,0,0,0,292.31,233.11Zm-14.43-12.06A114.93,114.93,0,1,1,163,106.13,115.06,115.06,0,0,1,277.88,221.05Z"/><path class="cls-3" d="M53.49,118.17a7.49,7.49,0,0,0,5.71-12.35,5.74,5.74,0,0,0-.41-.45A7.5,7.5,0,0,0,48.12,115.9l.07.08A7.56,7.56,0,0,0,53.49,118.17Z"/></g></g></svg>