<svg xmlns="http://www.w3.org/2000/svg" viewBox="0 0 64 64"><defs><style>.cls-1{isolation:isolate;}.cls-2,.cls-3{fill:#fff;}.cls-2{opacity:0.36;}</style></defs><title>cloud</title><g id="Shape_1" data-name="Shape 1" class="cls-1"><circle class="cls-2" cx="32" cy="32" r="32"/><path class="cls-3" d="M267.27,673.62a5.06,5.06,0,0,1,3.61,1.5,5.13,5.13,0,0,1,0,7.23,5.06,5.06,0,0,1-3.61,1.5h-19a6.88,6.88,0,1,1,1.36-13.61c.24,0,.48.12.73.19A9,9,0,0,1,258,666a8.93,8.93,0,0,1,8.81,7.62,3.29,3.29,0,0,1,.45,0Zm2.64,2.46a3.73,3.73,0,0,0-2.64-1.08l-.46,0-.43.07-.8.2-.05-.82a7.53,7.53,0,0,0-14.26-2.89l-.29.57-.6-.25a5.87,5.87,0,0,0-1-.32,5.62,5.62,0,0,0-1.1-.11,5.5,5.5,0,1,0,0,11h19a3.74,3.74,0,0,0,2.64-6.39Z" transform="translate(-224.87 -644.18)"/></g></svg>