<svg xmlns="http://www.w3.org/2000/svg" viewBox="0 0 936.96 874.53"><defs><style>.cls-1{fill:none;}.cls-2{fill:#9fc6ea;}.cls-3{fill:#2c82c4;}</style></defs><title>Слой 1</title><g id="Слой_2" data-name="Слой 2"><g id="Слой_1-2" data-name="Слой 1"><path class="cls-1" d="M677.3,471.59c0-.11,0-.21-.08-.31a3.13,3.13,0,0,1-.19.36Z"/><path class="cls-1" d="M707.63,429.7l0,0v.05Z"/><path class="cls-1" d="M281.59,193.46a5.62,5.62,0,0,1-.41-2.47h-.08v2.68Z"/><path class="cls-1" d="M561.12,355.92l1.08,0v-1.19A5,5,0,0,1,561.12,355.92Z"/><path class="cls-1" d="M562.2,344.25v-.68h-3.66l2.63.39A5.17,5.17,0,0,1,562.2,344.25Z"/><path class="cls-1" d="M312.33,206.16v-.46l-1.19.28Z"/><path class="cls-1" d="M485.36,208.58l-1.51,0a3.85,3.85,0,0,1,.08.47Z"/><path class="cls-1" d="M563.76,249.65l-.78.22h.66Z"/><path class="cls-1" d="M898.58,167.47c-.12-.15-.25-.29-.38-.44,0,.1-.07.2-.11.3Z"/><path class="cls-1" d="M864.45,156.16h-5.94l3.87.08C863.07,156.2,863.76,156.19,864.45,156.16Z"/><path class="cls-1" d="M727.53,234.15l-2.54.25h2.51Z"/><path class="cls-1" d="M500.72,373.46a5.82,5.82,0,0,1-.69-3.72l-.3,0v4.94c.07-.09.12-.18.19-.26C500.18,374.07,500.45,373.77,500.72,373.46Z"/><path class="cls-1" d="M900.92,281a5.27,5.27,0,0,1-1.31-.21c-1.27,0-2.53-.08-3.8-.2-5.35.22-10.71.4-16.06.51-1.38,0-3.27.08-5.21,0v.05H190.26a32.86,32.86,0,0,1-4.84.19c-3.91,0-7.81,0-11.72,0-5.84,0-11.69-.08-17.53-.18V812.07A31.23,31.23,0,0,0,187.4,843.3H874.53a31.24,31.24,0,0,0,31.24-31.23V281ZM187.4,328H312.33v31.23H187.4Zm93.7,93.7H187.4V390.41h93.7Zm484.11,203H723.94a197.66,197.66,0,0,1-12.35,29.83l29.19,29.17a15.64,15.64,0,0,1,0,22.09L674.52,772a15.64,15.64,0,0,1-22.09,0l-29.17-29.17a203.19,203.19,0,0,1-29.83,12.34v41.27a15.61,15.61,0,0,1-15.61,15.62h-93.7a15.62,15.62,0,0,1-15.62-15.62V755.18a203.64,203.64,0,0,1-29.83-12.34L409.5,772a15.63,15.63,0,0,1-22.08,0l-66.26-66.26a15.64,15.64,0,0,1,0-22.09l29.18-29.17A198.7,198.7,0,0,1,338,624.66H296.71a15.61,15.61,0,0,1-15.61-15.61v-93.7a15.61,15.61,0,0,1,15.61-15.62H338a203.78,203.78,0,0,1,8.59-22.11q1.79-3.89,3.75-7.71l-29.17-29.18a15.63,15.63,0,0,1,0-22.08l66.26-66.26a15.63,15.63,0,0,1,22.08,0l29.17,29.17a203.64,203.64,0,0,1,29.83-12.34V328a15.62,15.62,0,0,1,15.62-15.62h93.7A15.61,15.61,0,0,1,593.43,328v41.27a203.19,203.19,0,0,1,29.83,12.34l29.17-29.17a15.64,15.64,0,0,1,22.09,0l66.26,66.26a15.63,15.63,0,0,1,0,22.08l-29.19,29.18a198,198,0,0,1,12.35,29.82h41.27a15.62,15.62,0,0,1,15.62,15.62v93.7A15.61,15.61,0,0,1,765.21,624.66ZM874.53,812.07h-93.7V780.83h93.7Z"/><path class="cls-1" d="M672.84,416.41l.14,0,.11-.3-1.5-.35Z"/><path class="cls-1" d="M687.29,447.36c-.38-.5-.73-1-1.1-1.53h-.25c.26.46.53.91.78,1.38Z"/><path class="cls-1" d="M587.63,687.11l.23-.07c.53-.34,1.07-.67,1.62-1l-.32-.14Z"/><path class="cls-1" d="M531,484.12a78.08,78.08,0,1,0,78.08,78.08A78.09,78.09,0,0,0,531,484.12Z"/><path class="cls-1" d="M424.45,411.45l-.22-.22c0,.12,0,.24.06.36Z"/><path class="cls-2" d="M185.42,281.29a32.86,32.86,0,0,0,4.84-.19H187.4V249.87H563l.78-.22-.12.22h310.9v31.18c1.94.1,3.83.05,5.21,0,5.35-.11,10.71-.29,16.06-.51,1.27.12,2.53.19,3.8.2a5.27,5.27,0,0,0,1.31.21l4.85,0V187.4a31.09,31.09,0,0,0-7.19-19.93l-.49-.14c0-.1.08-.2.11-.3a31.14,31.14,0,0,0-23.67-10.87H864.45c-.69,0-1.38,0-2.07.08l-3.87-.08H187.4a31.24,31.24,0,0,0-31.23,31.24v93.74c5.84.1,11.69.17,17.53.18C177.61,281.33,181.51,281.32,185.42,281.29Zm542.11-47.14,0,.26H725ZM485.36,208.58l-1.43.44a3.85,3.85,0,0,0-.08-.47Zm-173-21.18h31.24v31.23H312.33V206.16l-1.19-.18,1.19-.28Zm-62.46,0H281.1V191h.08a5.62,5.62,0,0,0,.41,2.47l-.49.22v24.95H249.87Zm-62.47,0h31.23v31.23H187.4Z"/><path class="cls-2" d="M697.1,519.25a170.83,170.83,0,0,0-18.28-44.16,15.86,15.86,0,0,1-1.52-3.5l-.27.05a3.13,3.13,0,0,0,.19-.36,15.65,15.65,0,0,1,4-15.17l26.38-26.39v-.05l-44.13-44.16-26.42,26.42a15.62,15.62,0,0,1-19,2.41,170.45,170.45,0,0,0-44.16-18.27A15.61,15.61,0,0,1,562.2,381V356l-1.08,0a5,5,0,0,0,1.08-1.16V344.25a5.17,5.17,0,0,0-1-.29l-2.63-.39H499.73v26.15l.3,0a5.82,5.82,0,0,0,.69,3.72c-.27.31-.54.61-.8.94-.07.08-.12.17-.19.26v6.24A15.61,15.61,0,0,1,488,396a171.15,171.15,0,0,0-44.16,18.27,15.6,15.6,0,0,1-19-2.39l-.43-.43-.16.14c0-.12,0-.24-.06-.36l-25.76-25.78L354.3,429.63l26.4,26.42a15.64,15.64,0,0,1,2.41,19,172.88,172.88,0,0,0-18.27,44.23A15.63,15.63,0,0,1,349.72,531H312.33v62.47h37.39a15.63,15.63,0,0,1,15.12,11.71,170.87,170.87,0,0,0,18.27,44.17,15.61,15.61,0,0,1-2.41,19L354.3,694.7l44.17,44.19,26.41-26.43a15.61,15.61,0,0,1,19-2.4A170.8,170.8,0,0,0,488,728.33a15.61,15.61,0,0,1,11.71,15.12v37.38H562.2V743.45a15.61,15.61,0,0,1,11.71-15.12,170.8,170.8,0,0,0,44.16-18.27,15.61,15.61,0,0,1,19,2.4l26.42,26.43,44.16-44.19-26.4-26.42a15.63,15.63,0,0,1-2.41-19,170.89,170.89,0,0,0,18.28-44.17,15.61,15.61,0,0,1,15.12-11.71H749.6V531H712.22A15.61,15.61,0,0,1,697.1,519.25Zm-10.91-73.42c.37.51.72,1,1.1,1.53l-.57-.15c-.25-.47-.52-.92-.78-1.38ZM587.86,687l-.23.07,1.53-1.19.32.14C588.93,686.37,588.39,686.7,587.86,687ZM531,671.52A109.32,109.32,0,1,1,640.28,562.2,109.31,109.31,0,0,1,531,671.52ZM673,416.39l-.14,0-1.25-.67,1.5.35Z"/><path class="cls-3" d="M31.23,687.13V62.46A31.23,31.23,0,0,1,62.46,31.23H749.6a31.23,31.23,0,0,1,31.23,31.23V93.7h31.24V62.46A62.47,62.47,0,0,0,749.6,0H62.46A62.47,62.47,0,0,0,0,62.46V687.13A62.47,62.47,0,0,0,62.46,749.6H93.7V718.37H62.46A31.24,31.24,0,0,1,31.23,687.13Z"/><rect class="cls-3" x="62.46" y="62.46" width="31.23" height="31.23"/><rect class="cls-3" x="124.93" y="62.46" width="31.23" height="31.23"/><rect class="cls-3" x="187.4" y="62.46" width="31.23" height="31.23"/><path class="cls-3" d="M874.53,124.93H187.4a62.47,62.47,0,0,0-62.47,62.47V812.07a62.47,62.47,0,0,0,62.47,62.46H874.53A62.45,62.45,0,0,0,937,813.65V185.82A62.46,62.46,0,0,0,874.53,124.93Zm0,718.37H187.4a31.23,31.23,0,0,1-31.23-31.23V187.4a31.24,31.24,0,0,1,31.23-31.24H874.53A31.14,31.14,0,0,1,898.2,167c.13.15.26.29.38.44a31.09,31.09,0,0,1,7.19,19.93V812.07A31.24,31.24,0,0,1,874.53,843.3Z"/><rect class="cls-3" x="187.4" y="187.4" width="31.23" height="31.23"/><polygon class="cls-3" points="281.1 193.68 281.1 191 281.1 187.4 249.87 187.4 249.87 218.63 281.1 218.63 281.1 193.68"/><polygon class="cls-3" points="312.33 218.63 343.57 218.63 343.57 187.4 312.33 187.4 312.33 205.7 312.33 206.16 312.33 218.63"/><polygon class="cls-3" points="563.64 249.87 562.98 249.87 187.4 249.87 187.4 281.1 190.25 281.1 874.53 281.1 874.53 281.05 874.53 249.87 563.64 249.87"/><rect class="cls-3" x="187.4" y="327.95" width="124.93" height="31.23"/><rect class="cls-3" x="187.4" y="390.41" width="93.7" height="31.23"/><path class="cls-3" d="M531,452.88A109.32,109.32,0,1,0,640.28,562.2,109.31,109.31,0,0,0,531,452.88Zm0,187.4a78.08,78.08,0,1,1,78.08-78.08A78.09,78.09,0,0,1,531,640.28Z"/><path class="cls-3" d="M780.83,515.35a15.62,15.62,0,0,0-15.62-15.62H723.94a198,198,0,0,0-12.35-29.82l29.19-29.18a15.63,15.63,0,0,0,0-22.08l-66.26-66.26a15.64,15.64,0,0,0-22.09,0l-29.17,29.17a203.19,203.19,0,0,0-29.83-12.34V328a15.61,15.61,0,0,0-15.61-15.62h-93.7A15.62,15.62,0,0,0,468.5,328v41.27a203.64,203.64,0,0,0-29.83,12.34L409.5,352.39a15.63,15.63,0,0,0-22.08,0l-66.26,66.26a15.63,15.63,0,0,0,0,22.08l29.17,29.18q-2,3.82-3.75,7.71A203.78,203.78,0,0,0,338,499.73H296.71a15.61,15.61,0,0,0-15.61,15.62v93.7a15.61,15.61,0,0,0,15.61,15.61H338a198.7,198.7,0,0,0,12.35,29.83l-29.18,29.17a15.64,15.64,0,0,0,0,22.09L387.42,772a15.63,15.63,0,0,0,22.08,0l29.17-29.17a203.64,203.64,0,0,0,29.83,12.34v41.27a15.62,15.62,0,0,0,15.62,15.62h93.7a15.61,15.61,0,0,0,15.61-15.62V755.18a203.19,203.19,0,0,0,29.83-12.34L652.43,772a15.64,15.64,0,0,0,22.09,0l66.26-66.26a15.64,15.64,0,0,0,0-22.09l-29.19-29.17a197.66,197.66,0,0,0,12.35-29.83h41.27a15.61,15.61,0,0,0,15.62-15.61ZM749.6,593.43H712.22a15.61,15.61,0,0,0-15.12,11.71,170.89,170.89,0,0,1-18.28,44.17,15.63,15.63,0,0,0,2.41,19l26.4,26.42-44.16,44.19-26.42-26.43a15.61,15.61,0,0,0-19-2.4,170.8,170.8,0,0,1-44.16,18.27,15.61,15.61,0,0,0-11.71,15.12v37.38H499.73V743.45A15.61,15.61,0,0,0,488,728.33a170.8,170.8,0,0,1-44.16-18.27,15.61,15.61,0,0,0-19,2.4l-26.41,26.43L354.3,694.7l26.4-26.42a15.61,15.61,0,0,0,2.41-19,170.87,170.87,0,0,1-18.27-44.17,15.63,15.63,0,0,0-15.12-11.71H312.33V531h37.39a15.63,15.63,0,0,0,15.12-11.71A172.88,172.88,0,0,1,383.11,475a15.64,15.64,0,0,0-2.41-19l-26.4-26.42,44.17-44.18,25.76,25.78.22.22.43.43a15.6,15.6,0,0,0,19,2.39A171.15,171.15,0,0,1,488,396a15.61,15.61,0,0,0,11.71-15.1V343.57H562.2V381a15.61,15.61,0,0,0,11.71,15.12,170.45,170.45,0,0,1,44.16,18.27,15.62,15.62,0,0,0,19-2.41l26.42-26.42,44.13,44.16,0,0,0,0-26.38,26.39a15.65,15.65,0,0,0-4,15.17c0,.1,0,.2.08.31a15.86,15.86,0,0,0,1.52,3.5,170.83,170.83,0,0,1,18.28,44.16A15.61,15.61,0,0,0,712.22,531H749.6Z"/><rect class="cls-3" x="780.83" y="780.83" width="93.7" height="31.23"/></g></g></svg>