<svg xmlns="http://www.w3.org/2000/svg" viewBox="0 0 64 64"><defs><style>.cls-1{isolation:isolate;}.cls-2,.cls-3{fill:#fff;}.cls-2{opacity:0.36;}.cls-3{fill-rule:evenodd;}</style></defs><title>earth</title><g id="Shape_1" data-name="Shape 1" class="cls-1"><circle class="cls-2" cx="32" cy="32" r="32"/><g id="Forma_1" data-name="Forma 1"><path class="cls-3" d="M266.74,588.34a14,14,0,1,0,4.1,9.9A13.92,13.92,0,0,0,266.74,588.34ZM253.4,586a10,10,0,0,0-1.84,2.63,16.61,16.61,0,0,0-.74,1.71,12.67,12.67,0,0,1-2.38-1.65A12.75,12.75,0,0,1,253.4,586Zm2.81,11.64h-5.42a23.09,23.09,0,0,1,.79-5.56,14,14,0,0,0,4.63,1Zm-8.67-8.07a14.11,14.11,0,0,0,2.89,2,24.44,24.44,0,0,0-.89,6.09h-5.43A12.73,12.73,0,0,1,247.54,589.54Zm-3.43,9.33h5.43a24.15,24.15,0,0,0,.9,6.12,14,14,0,0,0-2.88,2A12.75,12.75,0,0,1,244.11,598.87Zm4.36,9a12.62,12.62,0,0,1,2.36-1.64,16,16,0,0,0,.73,1.68,10.18,10.18,0,0,0,1.84,2.63A12.65,12.65,0,0,1,248.47,607.84Zm7.75,2.95c-1.31-.29-2.55-1.5-3.54-3.47a14.79,14.79,0,0,1-.71-1.66,12.76,12.76,0,0,1,4.25-.95Zm0-7.33a13.71,13.71,0,0,0-4.63,1,22.84,22.84,0,0,1-.8-5.59h5.43Zm0-11.66a12.82,12.82,0,0,1-4.26-.95,13.77,13.77,0,0,1,.72-1.7c1-2,2.23-3.17,3.54-3.46Zm13.36,5.81h-5.43a24.37,24.37,0,0,0-.89-6.09,14.11,14.11,0,0,0,2.89-2A12.73,12.73,0,0,1,269.58,597.61Zm-4.34-9a12.29,12.29,0,0,1-2.37,1.65,16.61,16.61,0,0,0-.74-1.71,9.85,9.85,0,0,0-1.84-2.63A12.64,12.64,0,0,1,265.24,588.66Zm-7.77-3c1.31.29,2.55,1.5,3.54,3.46a13.77,13.77,0,0,1,.72,1.7,12.82,12.82,0,0,1-4.26.95Zm0,7.38a14.6,14.6,0,0,0,4.64-1,23.1,23.1,0,0,1,.78,5.56h-5.42Zm0,5.8h5.43a22.84,22.84,0,0,1-.8,5.59,14,14,0,0,0-4.63-1Zm0,11.92v-6.08a13,13,0,0,1,4.25.95,14.79,14.79,0,0,1-.71,1.66C260,609.29,258.78,610.5,257.47,610.79Zm2.82-.28a10.08,10.08,0,0,0,1.84-2.64,15.17,15.17,0,0,0,.73-1.68,12.62,12.62,0,0,1,2.36,1.64A12.54,12.54,0,0,1,260.29,610.51Zm5.84-3.55a14.21,14.21,0,0,0-2.87-2,24.61,24.61,0,0,0,.89-6.12h5.43A12.75,12.75,0,0,1,266.13,607Z" transform="translate(-224.87 -566.86)"/></g></g></svg>