<svg xmlns="http://www.w3.org/2000/svg" viewBox="0 0 400.65 512"><defs><style>.cls-1{fill:#9fc6ea;}.cls-2{fill:#2c82c4;}</style></defs><title>Expertise</title><g id="Слой_2" data-name="Слой 2"><g id="Слой_1-2" data-name="Слой 1"><rect class="cls-1" x="149.09" y="376.47" width="102.47" height="22.48"/><rect class="cls-1" x="149.09" y="418.96" width="102.47" height="22.48"/><path class="cls-1" d="M200.32,492c20.33,0,38.67-12.3,47.36-30.56H153C161.66,479.7,180,492,200.32,492Z"/><path class="cls-2" d="M200.32,64.59a135.5,135.5,0,0,0-128.89,93.1,10,10,0,1,0,19,6.27,115.76,115.76,0,0,1,225.65,36.36c0,49.33-22.09,78.8-39.84,102.48-12.92,17.22-24.07,32.1-24.07,50.14,0,1.19,0,2.36,0,3.53H210.32v-23a10,10,0,0,0-20,0v23H148.53c0-1.17,0-2.34,0-3.53,0-18.05-11.15-32.92-24.06-50.15-13.08-17.44-27.9-37.21-35.24-65.3a10,10,0,0,0-19.35,5.06c8.34,31.89,25.11,54.26,38.59,72.24,11.21,15,20.06,26.77,20.06,38.15,0,4.79.21,9.46.6,13.92v84.58c0,.27,0,.54,0,.8,0,.06,0,.13,0,.19a9.89,9.89,0,0,0,.17,1.09h0a74.88,74.88,0,0,0,25,41.7,71.41,71.41,0,0,0,92,0,74.94,74.94,0,0,0,25-41.7h0c.07-.36.13-.72.17-1.09a1.21,1.21,0,0,1,0-.19c0-.27,0-.53,0-.8V366.86c.4-4.46.61-9.13.61-13.92,0-11.38,8.85-23.19,20.06-38.15,18.5-24.68,43.84-58.48,43.84-114.47C336.06,125.48,275.17,64.59,200.32,64.59Zm0,427.41C180,492,161.66,479.7,153,461.44h94.71C239,479.7,220.65,492,200.32,492ZM149.09,376.47H251.56V399H149.09Zm0,65V419H251.56v22.48Z"/><path class="cls-2" d="M200.32,46.64a10,10,0,0,0,10-10V10a10,10,0,0,0-20,0V36.64A10,10,0,0,0,200.32,46.64Z"/><path class="cls-2" d="M36.65,190.32H10a10,10,0,0,0,0,20H36.65a10,10,0,1,0,0-20Z"/><path class="cls-2" d="M210.32,230.53h25.79a10,10,0,0,0,0-20H164.54a10,10,0,0,0,0,20h25.78v23a10,10,0,0,0,20,0Z"/><path class="cls-2" d="M77.52,91.66A10,10,0,1,0,91.66,77.52L72.82,58.68A10,10,0,0,0,58.67,72.82Z"/><path class="cls-2" d="M70.62,315.89,51.77,334.73a10,10,0,0,0,14.15,14.14L84.76,330a10,10,0,0,0-14.14-14.14Z"/><path class="cls-2" d="M316.06,94.59a10,10,0,0,0,7.07-2.93L342,72.82a10,10,0,0,0-14.14-14.15L309,77.51a10,10,0,0,0,7.07,17.08Z"/><path class="cls-2" d="M330,315.89A10,10,0,0,0,315.89,330l18.84,18.84a10,10,0,0,0,14.14-14.14Z"/><path class="cls-2" d="M390.65,190.32H364a10,10,0,0,0,0,20h26.65a10,10,0,0,0,0-20Z"/><circle class="cls-2" cx="200.32" cy="293.5" r="10" transform="translate(-115.45 456.46) rotate(-82.98)"/><circle class="cls-2" cx="74.59" cy="200.32" r="10"/></g></g></svg>