<svg xmlns="http://www.w3.org/2000/svg" viewBox="0 0 64 64"><defs><style>.cls-1{isolation:isolate;}.cls-2,.cls-3{fill:#fff;}.cls-2{opacity:0.36;}</style></defs><title>graph</title><g id="Shape_1" data-name="Shape 1" class="cls-1"><circle class="cls-2" cx="32" cy="32" r="32"/><path class="cls-3" d="M271.2,754.32a3.4,3.4,0,0,0-3.39,3.4,3.35,3.35,0,0,0,.55,1.85l-3.67,3.67a3.39,3.39,0,0,0-1.86-.55,3.42,3.42,0,0,0-1.91.59l-3.7-3.71a3.4,3.4,0,1,0-6.25-1.85,3.35,3.35,0,0,0,.55,1.85l-3.67,3.67a3.35,3.35,0,0,0-1.85-.55,3.41,3.41,0,1,0,2.85,1.55l3.67-3.68a3.34,3.34,0,0,0,3.7,0l3.73,3.73a3.46,3.46,0,0,0-.51,1.8,3.4,3.4,0,1,0,6.79,0,3.35,3.35,0,0,0-.55-1.85l3.67-3.67a3.46,3.46,0,0,0,1.85.55,3.4,3.4,0,1,0,0-6.8ZM246,768.08a2,2,0,1,1,2-2A2,2,0,0,1,246,768.08Zm8.37-8.37a2,2,0,1,1,2-2A2,2,0,0,1,254.37,759.71Zm8.46,8.37a2,2,0,1,1,2-2A2,2,0,0,1,262.83,768.08Zm8.37-8.37a2,2,0,1,1,2-2A2,2,0,0,1,271.2,759.71Z" transform="translate(-226.24 -729.85)"/></g></svg>