<svg xmlns="http://www.w3.org/2000/svg" viewBox="0 0 64 64"><defs><style>.cls-1{isolation:isolate;}.cls-2,.cls-3{fill:#fff;}.cls-2{opacity:0.36;}.cls-3{fill-rule:evenodd;}</style></defs><title>heart-icon</title><g id="Shape_1" data-name="Shape 1" class="cls-1"><circle class="cls-2" cx="32" cy="32" r="32"/><g id="Shape_1-2" data-name="Shape 1"><path class="cls-3" d="M271.11,418a8.5,8.5,0,0,0-12,0l-.84.84-.85-.86a8.5,8.5,0,1,0-12,12l12.22,12.22a.89.89,0,0,0,.62.26.88.88,0,0,0,.62-.25L271.1,430a8.48,8.48,0,0,0,2.49-6A8.39,8.39,0,0,0,271.11,418Zm-1.25,10.79-11.64,11.59-11.61-11.61a6.74,6.74,0,0,1-2-4.77,6.75,6.75,0,0,1,11.52-4.76l1.47,1.47a.88.88,0,0,0,1.24,0l1.46-1.46a6.75,6.75,0,0,1,9.54,9.54Z" transform="translate(-226.23 -394.95)"/></g></g></svg>