<svg xmlns="http://www.w3.org/2000/svg" viewBox="0 0 512 512"><defs><style>.cls-1{fill:#9bc9ff;}.cls-2{fill:#1e81ce;}</style></defs><title>Layer 1</title><g id="Слой_2" data-name="Слой 2"><g id="Layer_1" data-name="Layer 1"><path class="cls-1" d="M299.54,19.2a502.48,502.48,0,0,0-95.29,6.17l3.19,11.57c19.66-3.22,39.3-6.8,59-9.65,9-1.3,26.8-2.74,30,8.73l4.2-7.38c-29.83,7.64-60.39-.48-90.59,1.69-24.18,1.74-48.43,9.44-63.33,29.65-3.51,4.75,3.46,11.68,8.21,8.21a131.28,131.28,0,0,1,60.32-24.3l-3.19-11.57a265.2,265.2,0,0,0-37.7,13.86c-6.18,2.81-1.8,13.07,4.62,11a109.3,109.3,0,0,0,46.77-30c3.4-3.7,1.16-10.36-4.24-10.24-13.06.27-25.51,5.46-37.4,10.45A282.92,282.92,0,0,0,92.26,89.31c-4.72,4.75,1.4,13.12,7.27,9.42l57.16-36-7.27-9.43L102.83,93l8.49,8.48A99.78,99.78,0,0,0,132.72,73c2.31-4.61-1.5-10.2-6.77-8.82A97.4,97.4,0,0,0,74.87,97c-4.8,6,2.59,13.67,8.49,8.49l45.5-39.95-10-5.83c-5.75,15-18.66,25.77-30.08,36.41-11.83,11-23.1,22.73-28.55,38.29-2.09,6,5.91,9.61,10,5.83l37.52-34.4c5.72-5.24-2.76-13.63-8.48-8.48a253.28,253.28,0,0,0-59.53,80l11,4.62a137,137,0,0,1,41.88-81.6l-9.43-7.27A709,709,0,0,0,20.84,197.67l11.18,3a56.11,56.11,0,0,1,12.53-37.95l-10.24-4.24a304.17,304.17,0,0,1,.06,58L46.15,215c-2.85-13.79.69-27.68,9-38.9l-11-1.44c1.82,9.41-.6,18.75-3.08,27.8a213.71,213.71,0,0,0-6,27.5c-2.54,18.65-2.19,37.47-1.75,56.24l11.79-1.59a343,343,0,0,1-4.76-89.33c.45-5.88-8.56-8.24-11.18-3-23,45.93-19.08,103.47,10.86,145.41,4.42,6.2,14.73.41,10.36-6.06A141.83,141.83,0,0,1,26.22,261l-11.78,1.6,20.27,64.85c1.85,5.92,9.54,5.46,11.57,0a59.55,59.55,0,0,0-5.83-52.65,6.05,6.05,0,0,0-11.18,3,138.43,138.43,0,0,0,28.25,90.41c4.56,5.92,14.69.6,10.36-6.06A122.61,122.61,0,0,1,49.5,314.32l-11.57,3.19c9.91,26.24,20.4,53.56,40.35,74,11,11.31,25.36,18.29,36.88,29,12.32,11.43,23.45,24.31,35,36.52l7.27-9.42a412.74,412.74,0,0,1-70.7-51c-5.73-5.14-13.78,2.81-8.48,8.49l50.62,54.24,7.27-9.43A273.39,273.39,0,0,1,26.84,301.76c-2.21-7.41-13.32-4.34-11.57,3.19a167.08,167.08,0,0,0,28,61.05c12,16.32,31.31,30.24,36.12,50.78,1.75,7.52,13.33,4.34,11.57-3.19C86,392.6,68.44,379,55.74,362.77a156.77,156.77,0,0,1-28.9-61L15.27,305a286.35,286.35,0,0,0,114.8,155.31c5.84,3.91,11.78-4.59,7.27-9.42L86.72,396.6l-8.48,8.49a427.33,427.33,0,0,0,73.12,52.85c6,3.42,11.95-4.47,7.27-9.42-11.13-11.79-21.92-24.06-33.65-35.26-11.07-10.58-25-17.45-36-28C69.14,366.14,59,339.53,49.5,314.32c-2.75-7.29-12.79-4.43-11.57,3.19a131,131,0,0,0,19.59,50.71l10.36-6.06a128.16,128.16,0,0,1-26.61-84.35l-11.19,3a48.07,48.07,0,0,1,4.63,43.4H46.28L26,259.39c-1.94-6.2-12.23-5.44-11.79,1.59a153.93,153.93,0,0,0,25.85,76.64l10.36-6.06c-27.39-38.37-32-91-10.85-133.29l-11.19-3a355.21,355.21,0,0,0,5.19,92.52c1.25,6.69,11.94,5.09,11.78-1.6-.46-19.5-1.07-39.3,2.15-58.62,3.12-18.73,12-36.8,8.28-56.11-1.08-5.62-8.2-5.14-11-1.43a60.11,60.11,0,0,0-10.24,48.15c1.46,7.07,11.19,4.7,11.79-1.6a304.17,304.17,0,0,0-.06-58c-.44-4.59-6.6-8.67-10.24-4.25A68.65,68.65,0,0,0,20,200.7c.2,5.54,8.44,8.68,11.18,3A709.24,709.24,0,0,1,93.54,99.17c4.1-5.7-4.65-11.76-9.43-7.27a147.3,147.3,0,0,0-45,86.9c-.41,3,.47,5.82,3.47,7.08,2.54,1.07,6.21.26,7.49-2.45a244.6,244.6,0,0,1,57.65-77.57l-8.48-8.48-37.52,34.4,10,5.84c5.3-15.16,18-26,29.4-36.66,11.91-11.06,23.3-22.6,29.22-38,2.32-6.06-6-9.41-10-5.84L74.87,97l8.49,8.49a86.66,86.66,0,0,1,45.78-29.74L122.36,67A90.33,90.33,0,0,1,102.83,93c-5.72,5.3,2.68,13.43,8.49,8.48l46.59-39.67c5.19-4.43-1.55-13-7.28-9.42l-57.15,36,7.27,9.43a274.23,274.23,0,0,1,84.93-58.1c11.17-4.87,23.55-10.51,35.89-10.76l-4.24-10.25a97,97,0,0,1-41.48,26.89l4.63,11a244.32,244.32,0,0,1,34.83-12.65c7.67-2.16,4.22-12.58-3.19-11.57a138.69,138.69,0,0,0-63.19,25.5L157.14,66c13.64-18.5,38.65-23.56,60.31-24,29-.63,57.85,5.54,86.44-1.77a6.09,6.09,0,0,0,4.19-7.39c-4.54-16-22.57-19.14-37-18-10.31.78-20.59,3-30.78,4.69l-36,5.89c-7.61,1.24-4.37,12.78,3.19,11.57a486.21,486.21,0,0,1,92.1-5.74c7.72.24,7.71-11.76,0-12Z"/><path class="cls-1" d="M20.6,239.59v36.89c0,7.72,12,7.73,12,0V257.59c0-7.72-12-7.73-12,0v18.89c0,7.72,12,7.73,12,0V239.59c0-7.72-12-7.73-12,0Z"/><path class="cls-1" d="M249.51,251.18c-7.71,9.27,6.34,20.36,14.35,12.09,6.72-6.94,3.12-25.22-8.32-24.3-5.09.42-8.19,4.82-9.19,9.5a56.59,56.59,0,0,0-.77,8.62c-.17,2.73-.56,5.63.14,8.33a9.09,9.09,0,0,0,12.06,6.49,12,12,0,0,0,6.07-5.44c1.13-2,1-5.93,2.51-7.6,5.08-5.78-3.37-14.3-8.48-8.49-1.91,2.18-4.44,6.06-4.21,9.17q-1.15,2,1.65,1.92c1.43,1.26,2.09,1.36,2,.28.6-.68.25-4.42.3-5.38.1-1.54.35-3.17.3-4.71l.22-1c.47-1.51-.77-1.65-3.7-.43a23.43,23.43,0,0,0,.74,3.59,2.57,2.57,0,0,1-.12,1.29q5.46-2.72,2.94,4.54c4.9-5.89-3.54-14.43-8.49-8.48Z"/><path class="cls-1" d="M331.18,37.32l-31.5-7.5C292.18,28,289,39.6,296.49,41.39l31.5,7.5c7.51,1.78,10.71-9.78,3.19-11.57Z"/><path class="cls-1" d="M287.59,26.6l-9.46-1c-6.67-.67-8.29,10.74-1.6,11.79q31.67,4.94,62.78,12.7l1.6-11.79-45.43.28v12a86,86,0,0,1,34.14,5.3c7.37,2.72,10.12-8.66,3.19-11.57L278,21.35l-3.19,11.57A319.93,319.93,0,0,1,320,45.21c6.52,2.29,10.38-7.59,4.63-11L305.22,22.83l-3,11.18a131.79,131.79,0,0,1,73,30.4l5.84-10c-18.89-7.85-38.26-15.44-59.07-15-7.12.15-7.68,9.4-1.59,11.79l75.29,29.62L397.22,69A46.18,46.18,0,0,1,373.7,58.61L366.43,68A167.41,167.41,0,0,1,405,99.49L413.44,91c-6.63-7.19-15.59-10.26-24.33-14-7.46-3.22-18.88-10-15.55-19.75l-8.82,3.58a246.14,246.14,0,0,1,61.4,42.28l5.84-10a69.34,69.34,0,0,1-30.6-21.26l-7.27,9.42a123.54,123.54,0,0,1,45.57,47.14l9.42-7.27a187,187,0,0,0-42.21-30.84c-6.2-3.3-11.63,4.28-7.27,9.43A679.41,679.41,0,0,1,454.21,174c3.67,5.78,12.48,2.06,11-4.62a446,446,0,0,0-15.95-54.21c-2.69-7.38-12.67-4.37-11.57,3.19l2.78,19,10-5.84a32.34,32.34,0,0,1-10.28-24.7l-10.24,4.24a163.71,163.71,0,0,1,39.24,90.82l11.18-3q-22.61-45-47.83-88.61c-3.3-5.71-13.36-1.92-11,4.63a398,398,0,0,0,17.12,40c6.46,13,14.18,25.51,19.57,39,10.93,27.44,9.16,57.38,7.4,86.25-.32,5.3,6.73,7.79,10.24,4.25,26.29-26.49,26.74-72.4,1.19-99.52-3.43-3.64-10.6-1-10.24,4.24l3.73,55c.52,7.63,12,7.8,12,0l.3-55.45-11.18,3c13.87,27.89,6.6,60.59,0,89.43l11.78,1.6,3.46-38.68-11.79,1.6a85.17,85.17,0,0,1-3.08,71.18l11.18,3L482,274c-.18-6.56-10.23-8.4-11.79-1.59A414.71,414.71,0,0,1,420.36,395.2c-3.45,5.66,5.17,12.75,9.42,7.27a385.66,385.66,0,0,0,54.68-96.35l-10,2.65c4.26,4.74.11,12.82-2.4,17.41-4.4,8-9.47,15.76-14.21,23.59l-29.11,48.11c-4.07,6.73,5.93,12.19,10.36,6.05l32.82-45.36-10.36-6.05a217.49,217.49,0,0,1-93.95,82.23c-7,3.21-.92,13.55,6.06,10.36a228.55,228.55,0,0,0,98.25-86.54c4.17-6.67-5.92-12.19-10.36-6.05l-32.82,45.36,10.36,6.05,34.22-56.54c7.95-13.15,22.77-32.5,9.62-47.1-3.3-3.67-8.5-1.26-10,2.64A366,366,0,0,1,421.29,394l9.43,7.27A425,425,0,0,0,481.8,275.57L470,274l1.22,45.92c.16,5.68,8.33,8.52,11.18,3,12.9-24.77,14.76-54.44,4.29-80.43-2.52-6.27-11.16-5.39-11.78,1.59l-3.46,38.68c-.6,6.74,10.29,8.13,11.79,1.59,7.4-32.38,14.27-67.53-1.22-98.68-2.72-5.49-11.14-2.66-11.18,3l-.3,55.45h12l-3.73-55-10.25,4.25C489.67,215.83,489,254.21,467.4,276l10.24,4.24c1.79-29.27,3.39-59.76-7.17-87.72-5.19-13.75-12.67-26.4-19.34-39.44a368.76,368.76,0,0,1-18-41.36l-11,4.62q25.21,43.59,47.83,88.61c2.59,5.14,11.77,2.89,11.18-3a177.59,177.59,0,0,0-42.76-99.3c-3.55-4.09-10.13-.66-10.24,4.24A44.23,44.23,0,0,0,442,140c4.69,4.45,10.85-.17,10-5.84l-2.78-19-11.57,3.19a446,446,0,0,1,16,54.21l11-4.63A701.23,701.23,0,0,0,408.1,91.18l-7.27,9.42a176,176,0,0,1,39.79,29c4.91,4.77,12.71-1.27,9.42-7.27a135.42,135.42,0,0,0-49.87-51.44c-6.15-3.63-11.51,4.4-7.27,9.43a80.94,80.94,0,0,0,35.89,24.34c5.71,2,10.08-6,5.84-10A257.25,257.25,0,0,0,370.8,50.44,6.1,6.1,0,0,0,362,54c-4,11.7,3.71,22.66,13.05,29.08S397,90.81,405,99.49c5.26,5.7,13.68-2.78,8.49-8.48a178.16,178.16,0,0,0-40.95-33.34c-5.7-3.38-12.62,4.95-7.27,9.42a60.84,60.84,0,0,0,32,13.9c7.23.94,7.33-9.53,1.59-11.78L323.52,39.59l-1.6,11.78C341.59,51,360,58.53,377.8,66c5.52,2.3,10.26-6.3,5.84-10A145.71,145.71,0,0,0,302.19,22c-6.14-.55-7.87,8.33-3,11.18L318.59,44.6l4.62-11A319.93,319.93,0,0,0,278,21.35c-7.76-1.51-10.2,8.62-3.19,11.57l54.81,23,3.19-11.57a94.93,94.93,0,0,0-37.33-5.73c-7.67.35-7.77,12,0,12l45.43-.28c6.66,0,8.27-10.12,1.59-11.78q-31.1-7.77-62.78-12.71l-1.59,11.79,9.46,1c7.68.77,7.62-11.23,0-12Z"/><path class="cls-1" d="M353.59,461.58c7.72,0,7.73-12,0-12s-7.74,12,0,12Z"/><path class="cls-1" d="M414.46,395.32c-12.35,10.47-24.8,20.83-37,31.42-9.59,8.29-18.82,17.81-21.59,30.61-.8,3.69,1.71,7.69,5.79,7.59A69.58,69.58,0,0,0,406.5,447c6-5.37,10.29-11.81,14.51-18.57,2.74-4.4,7.57-13.49,13.92-11.79l-1.43-11a277.5,277.5,0,0,0-67.77,43.21l8.48,8.48a51.19,51.19,0,0,1,22-11L388.81,439c-.52,3.52-3.63,5-6.51,6.61-4.45,2.46-9,4.79-13.51,7.12-8.55,4.38-17.19,8.58-26,12.48A299.3,299.3,0,0,1,287.58,484c-33.55,7.61-69.1,7.12-101.29-5.93a117.11,117.11,0,0,1-44.64-31.67l-4.24,10.24A238.94,238.94,0,0,1,201,472.28l3.19-11.57-44.27-6.26c-6.25-.89-11,7.32-4.63,11a151.54,151.54,0,0,0,86,19.36c5.48-.42,8.75-8.27,3-11.18a125.18,125.18,0,0,0-47.92-13.38c-5.84-.43-8.3,8.61-3,11.18a155.44,155.44,0,0,0,132.87,1.33c5.82-2.68,2.38-10.85-3-11.18l-56.6-3.36c-11-.65-31.77-2.29-31.73,14.07,0,3.56,2.77,5.57,6,6a163.36,163.36,0,0,0,54.11-2c5.24-1.06,5.61-8.44,1.44-11a14.44,14.44,0,0,0-15-.19c-6.05,3.31-1.89,12.62,4.63,11q39.64-10.07,78.3-23.6l-4.63-11L318,464c-3.92,2.11-3.89,8.25,0,10.37a26.63,26.63,0,0,0,31-3.8c5.33-4.85-1.44-12.19-7.27-9.42a214.37,214.37,0,0,1-132.24,16.51c-7.55-1.48-10.78,10.08-3.19,11.57a228.08,228.08,0,0,0,141.48-17.72l-7.27-9.42A14.24,14.24,0,0,1,324.07,464v10.37l41.76-22.49c5.89-3.17,1.87-13.24-4.62-11q-38.62,13.51-78.3,23.6l4.62,11c1.24-.68,1.68-.51,2.84.19l1.43-11a153.56,153.56,0,0,1-50.92,1.57l6,6c0-5.29,27.9-1.59,31.44-1.38l44.89,2.67-3-11.18c-37.89,17.51-83.28,17-120.77-1.33l-3,11.18A110.13,110.13,0,0,1,238.25,484l3-11.18a140.19,140.19,0,0,1-80-17.72l-4.62,11L201,472.28c7.62,1.08,10.48-8.7,3.19-11.57a250.24,250.24,0,0,0-66.74-16c-5.63-.57-7.3,6.71-4.24,10.24,23.88,27.59,59.16,41.9,94.92,45.38,40.5,3.94,80.65-7.26,117.49-23.25,11-4.78,21.81-10,32.46-15.58,8.14-4.24,20.8-8.8,22.34-19.25.66-4.49-2.55-8.52-7.38-7.38a64,64,0,0,0-27.27,14.1c-5.86,5,2.66,13.5,8.48,8.48a267.33,267.33,0,0,1,65.35-41.32c4.86-2.18,3.21-9.73-1.44-11-17.27-4.62-24.63,14.8-32.89,25.71a57,57,0,0,1-43.62,22.12l5.78,7.6c2.56-11.82,12-19.82,20.84-27.31q17.34-14.75,34.71-29.42c5.9-5-2.62-13.46-8.48-8.49Z"/><path class="cls-2" d="M437,75A256,256,0,0,0,75,437,256,256,0,0,0,437,75ZM256,491.6C126.09,491.6,20.4,385.91,20.4,256S126.09,20.4,256,20.4,491.6,126.09,491.6,256,385.91,491.6,256,491.6Z"/><path class="cls-2" d="M256,40.2C137,40.2,40.2,137,40.2,256S137,471.8,256,471.8,471.8,375,471.8,256,375,40.2,256,40.2ZM362.37,419.83l-17-29.37a10.2,10.2,0,0,0-17.67,10.2l17,29.41a194.08,194.08,0,0,1-78.52,21.07v-34a10.2,10.2,0,0,0-20.4,0v34a194.08,194.08,0,0,1-78.52-21.07l17-29.41a10.2,10.2,0,0,0-17.67-10.2l-17,29.37a196.91,196.91,0,0,1-57.46-57.46l29.37-17a10.2,10.2,0,0,0-10.2-17.67l-29.41,17A194.08,194.08,0,0,1,60.86,266.2h34a10.2,10.2,0,1,0,0-20.4h-34a194.08,194.08,0,0,1,21.07-78.52l29.41,17a10.2,10.2,0,0,0,10.2-17.67l-29.37-17a196.91,196.91,0,0,1,57.46-57.46l17,29.37a10.2,10.2,0,0,0,17.67-10.2l-17-29.41A194.08,194.08,0,0,1,245.8,60.86v34a10.2,10.2,0,0,0,20.4,0v-34a194.08,194.08,0,0,1,78.52,21.07l-17,29.41a10.2,10.2,0,0,0,17.67,10.2l17-29.37a196.91,196.91,0,0,1,57.46,57.46l-29.37,17a10.2,10.2,0,1,0,10.2,17.67l29.41-17a194.08,194.08,0,0,1,21.07,78.52h-34a10.2,10.2,0,0,0,0,20.4h34a194.08,194.08,0,0,1-21.07,78.52l-29.41-17a10.2,10.2,0,0,0-10.2,17.67l29.37,17A196.91,196.91,0,0,1,362.37,419.83Z"/><path class="cls-2" d="M266.2,227.6V162.17a10.2,10.2,0,0,0-20.4,0V227.6A30.15,30.15,0,0,0,233,275.47l-16.19,28a10.2,10.2,0,0,0,17.67,10.19l16.18-28a30.53,30.53,0,0,0,5.36.48,30.17,30.17,0,0,0,10.2-58.57ZM256,265.77a9.77,9.77,0,1,1,9.77-9.77A9.78,9.78,0,0,1,256,265.77Z"/><path class="cls-2" d="M256,142.79a10.2,10.2,0,0,0,10.2-10.2v-4.08a10.2,10.2,0,0,0-20.4,0v4.08A10.2,10.2,0,0,0,256,142.79Z"/></g></g></svg>