<svg xmlns="http://www.w3.org/2000/svg" viewBox="0 0 430.74 390.55"><defs><style>.cls-1{fill:#9bc9ff;}.cls-2{fill:#2384d0;}</style></defs><title>Capa 1</title><g id="Слой_2" data-name="Слой 2"><g id="Capa_1" data-name="Capa 1"><g id="Слой_2-2" data-name="Слой 2"><path class="cls-1" d="M40.79,331.36a21,21,0,0,0-4.76.7A5.71,5.71,0,0,0,31.11,334,13.29,13.29,0,0,0,24,338.66a11.18,11.18,0,0,0-.66.94c-6.21,6.11-8.14,15.91-7.2,24.81a8.87,8.87,0,0,0,3.11,6.26c2.7,5.23,8.63,9.06,14.59,9.83,8.1,1.06,24.32-.46,24-11.77a8.84,8.84,0,0,0-.64-3C64.78,352.55,59.29,330.82,40.79,331.36Zm8,29.5-.71.22a24.21,24.21,0,0,0,1.45-2.47q.39-.8.75-1.68A13.85,13.85,0,0,1,48.8,360.86Z"/><path class="cls-1" d="M279.62,334.76a5.61,5.61,0,0,0-2.88-4.57c0-.23-.07-.46-.1-.68-.4-2.55-2.6-3.65-4.83-3.56-10.17-4.28-24.82-9.54-34.86-2.62-8.87,6.1-9.26,22.82-5.36,31.89,3.37,7.82,11.2,10.39,19,9.88,6.8,3.93,18.69,1.26,24.75-3,3.2-2.25,4.45-5.42,4.74-9.21A109.79,109.79,0,0,0,279.62,334.76Z"/></g><path class="cls-2" d="M393.43,146.55c-20.58,0-37.32,15.65-37.32,34.89a33.29,33.29,0,0,0,7.73,21.22l-91.23,108.4a39.22,39.22,0,0,0-16.8-3.75,38.7,38.7,0,0,0-23.64,7.92L179.78,276.4a32.82,32.82,0,0,0,4.09-15.85c0-19.24-16.74-34.89-37.31-34.89s-37.31,15.65-37.31,34.89a32.93,32.93,0,0,0,5.19,17.72l-57,48.05a39,39,0,0,0-20.15-5.54C16.74,320.78,0,336.43,0,355.66s16.74,34.89,37.31,34.89,37.32-15.65,37.32-34.89A32.89,32.89,0,0,0,70,338.93l57.42-48.43a39.38,39.38,0,0,0,40.12-1.14l53.65,39.75a32.72,32.72,0,0,0-2.74,13.09c0,19.23,16.74,34.88,37.32,34.88s37.31-15.65,37.31-34.88a33.11,33.11,0,0,0-6.6-19.78l91.8-109.09a39.31,39.31,0,0,0,15.11,3c20.57,0,37.31-15.65,37.31-34.88S414,146.55,393.43,146.55ZM37.31,373.31c-10.41,0-18.87-7.91-18.87-17.64S26.9,338,37.31,338s18.88,7.91,18.88,17.65S47.72,373.31,37.31,373.31ZM146.56,278.2c-10.41,0-18.88-7.92-18.88-17.65s8.47-17.65,18.88-17.65,18.88,7.92,18.88,17.65S157,278.2,146.56,278.2Zm109.25,81.64c-10.41,0-18.88-7.91-18.88-17.64s8.47-17.65,18.88-17.65,18.88,7.91,18.88,17.65S266.22,359.84,255.81,359.84ZM393.43,199.08c-10.41,0-18.88-7.91-18.88-17.64s8.47-17.65,18.88-17.65,18.87,7.91,18.87,17.65S403.83,199.08,393.43,199.08Z"/><polygon class="cls-2" points="354.73 0 354.73 19.69 397.13 19.69 249.96 166.85 183.8 100.69 109.16 175.32 76.09 142.24 0 218.32 13.92 232.24 76.09 170.09 109.16 203.16 183.8 128.54 249.96 194.7 411.05 33.62 411.05 76.01 430.74 76.01 430.74 0 354.73 0"/></g></g></svg>