<svg xmlns="http://www.w3.org/2000/svg" viewBox="0 0 384 384"><defs><style>.cls-1{fill:none;}.cls-2{fill:#9fc6ea;}.cls-3{fill:#287fc2;}</style></defs><title>Слой 1</title><g id="Слой_2" data-name="Слой 2"><g id="Слой_1-2" data-name="Слой 1"><path class="cls-1" d="M242.66,308.16l.06-.12a8,8,0,0,1,.47-.8l-.85.32C242.45,307.76,242.56,308,242.66,308.16Z"/><path class="cls-1" d="M362,163.56l-.93-.22c0,.2,0,.4-.07.59a5.64,5.64,0,0,1,1.15.26C362.12,164,362.08,163.76,362,163.56Z"/><path class="cls-1" d="M233.82,46.44l-1.12-.15c.39.31.76.63,1.13,1C233.82,47,233.81,46.72,233.82,46.44Z"/><path class="cls-1" d="M42.1,267.41c.78,1.1,1.56,2.19,2.37,3.26-.41-.8-.84-1.6-1.28-2.39C42.83,268,42.46,267.72,42.1,267.41Z"/><path class="cls-1" d="M57.23,107.47q2.3-3.68,4.58-7.35A71.11,71.11,0,0,0,57.23,107.47Z"/><path class="cls-1" d="M125.2,354.82c.79.32,1.58.66,2.38,1a5.29,5.29,0,0,1-1.12-.92Z"/><path class="cls-1" d="M138.53,333.11a5.41,5.41,0,0,1,.45-.86c-.6.07-1.21.13-1.82.17C137.62,332.64,138.08,332.87,138.53,333.11Z"/><path class="cls-1" d="M41.55,283.23a2.33,2.33,0,0,1,0-.28c-.16-.18-.31-.38-.46-.57l.52.89Z"/><path class="cls-1" d="M67.1,134.3q0,.82-.12,1.68c.1-.18.17-.37.27-.55a4.78,4.78,0,0,1,.29-.44C67.38,134.76,67.24,134.53,67.1,134.3Z"/><path class="cls-1" d="M56,212H83.68a8,8,0,0,1,7.75,6,101.78,101.78,0,0,0,11,26.71,8,8,0,0,1-1.22,9.75l-19.6,19.6L110,302.34l19.56-19.59a8,8,0,0,1,9.75-1.23A101.78,101.78,0,0,0,166,292.57a8,8,0,0,1,6,7.75V328h40V300.32a8,8,0,0,1,6-7.75,101.78,101.78,0,0,0,26.71-11.05,8,8,0,0,1,9.75,1.22l19.6,19.6L302.34,274l-19.6-19.56a8,8,0,0,1-1.22-9.75A101.78,101.78,0,0,0,292.57,218a8,8,0,0,1,7.75-6H328V172H300.32a8,8,0,0,1-7.75-6,101.78,101.78,0,0,0-11.05-26.71,8,8,0,0,1,1.22-9.75l19.6-19.6L274,81.66l-19.56,19.59a8,8,0,0,1-9.75,1.22,102.1,102.1,0,0,0-26.71-11,8,8,0,0,1-6-7.75V56H172V83.68a8,8,0,0,1-6,7.75,101.78,101.78,0,0,0-26.71,11,8,8,0,0,1-9.75-1.22l-19.6-19.6L81.66,110l19.59,19.56a8,8,0,0,1,1.22,9.75,102.1,102.1,0,0,0-11,26.71,8,8,0,0,1-7.75,6H56Zm209.27,22a8,8,0,0,1,0,12l-32,28-10.54-12,16-14H192a56.06,56.06,0,0,1-56-56h16a40.05,40.05,0,0,0,40,40h46.71l-16-14,10.54-12ZM118.73,138l32-28,10.54,12-16,14H192a56.06,56.06,0,0,1,56,56H232a40.05,40.05,0,0,0-40-40H145.29l16,14-10.54,12-32-28a8,8,0,0,1,0-12Z"/><path class="cls-2" d="M41.55,283.23v0a177.12,177.12,0,0,0,83.64,71.55l1.26.05a5.29,5.29,0,0,0,1.12.92A175.08,175.08,0,0,0,192,368c97.05,0,176-78.95,176-176S289.05,16,192,16,16,95,16,192a174.88,174.88,0,0,0,25,90.38c.15.19.3.39.46.57A2.33,2.33,0,0,0,41.55,283.23Zm.55-15.82c.36.31.73.59,1.09.87.44.79.87,1.59,1.28,2.39C43.66,269.6,42.88,268.51,42.1,267.41Zm96.43,65.7c-.45-.24-.91-.47-1.37-.69.61,0,1.22-.1,1.82-.17A5.41,5.41,0,0,0,138.53,333.11ZM242.72,308l-.06.12c-.1-.2-.21-.4-.32-.6l.85-.32A8,8,0,0,0,242.72,308Zm118.37-144.7.93.22c.06.2.1.41.15.63a5.64,5.64,0,0,0-1.15-.26C361,163.74,361.07,163.54,361.09,163.34ZM233.82,46.44c0,.28,0,.55,0,.81-.37-.33-.74-.65-1.13-1Zm-172,53.68q-2.28,3.67-4.58,7.35A71.11,71.11,0,0,1,61.81,100.12ZM40,172a16,16,0,0,1,16-16H77.65a117.74,117.74,0,0,1,8-19.41L70.34,121.26a16,16,0,0,1,0-22.6L98.66,70.34a16,16,0,0,1,22.6,0l15.32,15.33a118.2,118.2,0,0,1,19.42-8V56a16,16,0,0,1,16-16h40a16,16,0,0,1,16,16V77.65a117.74,117.74,0,0,1,19.41,8l15.33-15.33a16,16,0,0,1,22.6,0l28.32,28.32a16,16,0,0,1,0,22.6l-15.33,15.32a118.2,118.2,0,0,1,8,19.42H328a16,16,0,0,1,16,16v40a16,16,0,0,1-16,16H306.35a117.74,117.74,0,0,1-8,19.41l15.33,15.33a16,16,0,0,1,0,22.6l-28.32,28.32a16,16,0,0,1-22.6,0l-15.32-15.33a119.12,119.12,0,0,1-19.42,8V328a16,16,0,0,1-16,16H172a16,16,0,0,1-16-16V306.36a119.12,119.12,0,0,1-19.42-8l-15.32,15.33a16,16,0,0,1-22.6,0L70.34,285.34a16,16,0,0,1,0-22.6l15.33-15.32a118.2,118.2,0,0,1-8-19.42H56a16,16,0,0,1-16-16Zm27-36q.08-.85.12-1.68c.14.23.28.46.44.69a4.78,4.78,0,0,0-.29.44C67.15,135.61,67.08,135.8,67,136Z"/><path class="cls-3" d="M192,0C86.13,0,0,86.13,0,192S86.13,384,192,384s192-86.13,192-192S297.87,0,192,0ZM16,192C16,95,95,16,192,16S368,95,368,192,289.05,368,192,368a175.08,175.08,0,0,1-64.42-12.21c-.8-.31-1.59-.65-2.38-1a177.12,177.12,0,0,1-83.64-71.55l-.52-.89A174.88,174.88,0,0,1,16,192Z"/><path class="cls-3" d="M56,228H77.65a118.2,118.2,0,0,0,8,19.42L70.34,262.74a16,16,0,0,0,0,22.6l28.32,28.32a16,16,0,0,0,22.6,0l15.32-15.33a119.12,119.12,0,0,0,19.42,8V328a16,16,0,0,0,16,16h40a16,16,0,0,0,16-16V306.36a119.12,119.12,0,0,0,19.42-8l15.32,15.33a16,16,0,0,0,22.6,0l28.32-28.32a16,16,0,0,0,0-22.6l-15.33-15.33a117.74,117.74,0,0,0,8-19.41H328a16,16,0,0,0,16-16V172a16,16,0,0,0-16-16H306.35a118.2,118.2,0,0,0-8-19.42l15.33-15.32a16,16,0,0,0,0-22.6L285.34,70.34a16,16,0,0,0-22.6,0L247.41,85.67a117.74,117.74,0,0,0-19.41-8V56a16,16,0,0,0-16-16H172a16,16,0,0,0-16,16V77.65a118.2,118.2,0,0,0-19.42,8L121.26,70.34a16,16,0,0,0-22.6,0L70.34,98.66a16,16,0,0,0,0,22.6l15.33,15.33a117.74,117.74,0,0,0-8,19.41H56a16,16,0,0,0-16,16v40A16,16,0,0,0,56,228Zm35.43-62a102.1,102.1,0,0,1,11-26.71,8,8,0,0,0-1.22-9.75L81.66,110l28.28-28.32,19.6,19.6a8,8,0,0,0,9.75,1.22,101.78,101.78,0,0,1,26.71-11,8,8,0,0,0,6-7.75V56h40V83.68a8,8,0,0,0,6,7.75,102.1,102.1,0,0,1,26.71,11,8,8,0,0,0,9.75-1.22L274,81.66l28.32,28.28-19.6,19.6a8,8,0,0,0-1.22,9.75A101.78,101.78,0,0,1,292.57,166a8,8,0,0,0,7.75,6H328v40H300.32a8,8,0,0,0-7.75,6,101.78,101.78,0,0,1-11.05,26.71,8,8,0,0,0,1.22,9.75L302.34,274l-28.28,28.32-19.6-19.6a8,8,0,0,0-9.75-1.22A101.78,101.78,0,0,1,218,292.57a8,8,0,0,0-6,7.75V328H172V300.32a8,8,0,0,0-6-7.75,101.78,101.78,0,0,1-26.71-11.05,8,8,0,0,0-9.75,1.23L110,302.34,81.66,274.06l19.6-19.6a8,8,0,0,0,1.22-9.75,101.78,101.78,0,0,1-11-26.71,8,8,0,0,0-7.75-6H56V172H83.68A8,8,0,0,0,91.43,166Z"/><path class="cls-3" d="M222.73,218l16,14H192a40.05,40.05,0,0,1-40-40H136a56.06,56.06,0,0,0,56,56h46.71l-16,14,10.54,12,32-28a8,8,0,0,0,0-12l-32-28Z"/><path class="cls-3" d="M118.73,150l32,28,10.54-12-16-14H192a40.05,40.05,0,0,1,40,40h16a56.06,56.06,0,0,0-56-56H145.29l16-14-10.54-12-32,28a8,8,0,0,0,0,12Z"/></g></g></svg>