<svg xmlns="http://www.w3.org/2000/svg" viewBox="0 0 513.75 509.78"><defs><style>.cls-1{isolation:isolate;}.cls-2{fill:#9bc9ff;}.cls-3{fill:#2384d0;fill-rule:evenodd;}</style></defs><title>Forma 1</title><g id="Слой_2" data-name="Слой 2"><g id="Forma_1" data-name="Forma 1" class="cls-1"><path class="cls-2" d="M141.13,310.82a4.89,4.89,0,0,0-3-.82c-.22-.67-.45-1.34-.69-2a4.84,4.84,0,0,0,1.2-2.15,163.3,163.3,0,0,0,5.59-43.48c-.07-7.63,0-16.73-2.08-24.85.57-2.84,1-5.72,1.37-8.64,1-8.55,2.18-19.24-5.9-24.72a4.75,4.75,0,0,0-4.33-.31c-2.92-8-8.83-13.82-19-14.46-3.25-.2-5.06,2.73-4.85,5.52a5.42,5.42,0,0,0-3.19.06c-.09-.15-.17-.32-.25-.46-1.52-2.55-5.76-3.55-7.86-1-.24.29-.46.58-.69.88a4.61,4.61,0,0,0-1-.2c-2.18-2.18-6-1.31-7.77,1.18a34.37,34.37,0,0,0-2.54,4.32c-2.44-1.67-6.1-1-7.54,2.66a105.69,105.69,0,0,0-5.94,55.88,4.85,4.85,0,0,0-.53,2.39q1,40.1,2,80.17c.29,11.72,0,23.67,1.34,35.32,1.16,9.75,4,19.09,11.18,26.12a4.69,4.69,0,0,0,7-.21c2.91,3.65,7.54,6.13,12.12,3.91.16-.07.29-.17.44-.25a11.59,11.59,0,0,0,5.76-3.12,7.73,7.73,0,0,0,.64.49c4.69,3,10.85.2,14.77-2.83a24.18,24.18,0,0,0,5.15-5.38c6.64-1.73,9.46-9.65,9.93-16.46.92-13.28.08-26.68-1.43-40a4.55,4.55,0,0,0,.82-.82A5,5,0,0,0,146.5,334a55.66,55.66,0,0,0,1.86-18.88A4.92,4.92,0,0,0,141.13,310.82Z"/><path class="cls-2" d="M390,84.18c4.77-3.78,4.74-11.42,2.12-17C386.26,54.61,371.91,49,359.62,42.6c-9.36-4.88-18.14-10.8-27.49-15.69C277.75-1.56,208.7,8.77,157.09,42c-6.79,4.37-13.38,9.12-20.62,12.71-3,1.51-6.24,2.84-8.77,5.12-10.32,9.32-2.77,23.76,8.32,26.37,14.92,3.51,33.6-3,45.46-11.81,5.89-4.38,11.05-9.82,17.59-13.14,4.88-2.48,10.31-3.65,15.68-4.71a444.83,444.83,0,0,1,67.76-7.94c-.7,4.14,5.24,5.45,9.39,6.11,9.69,1.53,17.23,8.88,25.3,14.45s19.29,9.47,27.35,3.88c1.41,7,8,12.1,14.92,13.9s14.25,1,21.37.12c3.06-.36,6.28-.78,8.79-2.57Z"/><path class="cls-2" d="M439.66,255.65a5.34,5.34,0,0,0,.39-1.74l1.1-25.43c.31-6.92,2-15.46-1.58-21.84-.24-.42-.5-.81-.77-1.2v-1.25c0-4.19-4.23-5.66-7.19-4.39a36.36,36.36,0,0,0-6.2-2.13,97.26,97.26,0,0,0-23.65-2.92c-6.61,0-15.35-.34-21,3.69-5.15,3.68-5.92,10.12-6.48,15.94A174.76,174.76,0,0,0,375.91,259c-.12,1-.22,2-.29,3-.55,7.95-.62,16-.92,23.92l-1.86,50.63a4.41,4.41,0,0,0,2.17,4,149.93,149.93,0,0,0-.33,25.25c1.06,14.8,2.53,31.73,19,36.64,11.36,3.38,28.23,5.14,38.15-2.68,5.51-4.33,7.35-10.7,8.26-17.39a260,260,0,0,0,2.23-27.17,267.85,267.85,0,0,0-1.1-33.64A178.17,178.17,0,0,0,439.66,255.65Z"/><g id="Forma_1-2" data-name="Forma 1"><path class="cls-3" d="M513.75,265.51c0-10.71-.1-21.87-4.94-31.43-7.22-14.28-23.07-21.21-39.43-22.86a79.87,79.87,0,0,0-14.33-.14c5.13-72-32.73-145.38-94.35-182.92s-144.21-37.54-205.82,0-99.46,111-94.32,183C40.72,209.18,18,215,8.21,232.34c-5.11,9-5.94,19.82-6.41,30.2-1.33,29.64-4.4,65.68,2.8,94.71C7.26,367.93,15.21,374.62,25,380c2.66,1.46,36.6,10.53,35.89,5.57,2.8,19.59,24.37,31.51,44.15,32.14,11.6.36,23.7-2.28,32.67-9.64,18.41-15.08,17.64-43,15.26-66.63-.69-6.87-5.83-16.21-11.7-12.58-2.13,1.31-3,3.95-3.46,6.42-2.06,10.92.59,22.12.88,33.24s-2.75,23.65-12.36,29.25c-5,2.9-10.93,3.46-16.69,3.76-9.83.51-20.89,0-27.64-7.19-6.31-6.69-6.66-16.85-6.65-26l.12-142.43c0-7.47.22-15.56,4.83-21.44,5.65-7.19,15.84-8.58,25-9,7.13-.32,14.71-.25,20.8,3.46,11.43,7,12.53,22.84,12.34,36.22q-.5,34.08-1,68.16c-.09,6.24,2,14.75,8.21,14.43,5.81-.29,7.49-8,7.48-13.83L153,228.73c0-9.08-.09-18.5-3.89-26.76-5.75-12.51-19.36-20.09-33-21.67s-27.45,2-40.33,6.89a181.38,181.38,0,0,1,36.7-100.32C119.88,100.17,138.35,103.3,153,99s26.9-14.06,40.23-21.44a135,135,0,0,1,110.93-8.29c4.85,1.81,11.4,3.43,14.31-.85,3.68-5.4-3.52-11.61-9.65-13.86a148.15,148.15,0,0,0-115,6.09c-16.28,8-31.25,19.12-48.75,23.95-7.58,2.09-18.4,1-19.75-6.76-.83-4.82,2.82-9.16,6.35-12.55a182,182,0,0,1,249.88-2.46c5.35,5,10.73,12.84,6.61,18.87-3,4.46-9.49,4.72-14.81,3.83a63.41,63.41,0,0,1-28.6-12.61c-5.2-4.08-13-9-17.38-4.06-4.66,5.17,2,12.71,7.88,16.38,10.83,6.72,22.06,13.6,34.68,15.45S397,98,403,86.78a180.48,180.48,0,0,1,36.88,100.36c-12.07-4.44-24.79-7.95-37.63-7.13s-25.89,6.6-32.87,17.4c-6.75,10.42-6.95,23.62-6.94,36l.12,131.05c0,12.24.24,25.26,6.92,35.52,7.15,11,20.63,16.56,33.71,17.13s25.94-3.2,38.3-7.53a92.44,92.44,0,0,1-120.63,82c7.82-10.52,4.25-26.58-5.36-35.51s-23.5-11.76-36.6-11.27c-12.83.48-26.43,4.37-34.43,14.42-10.07,12.65-7.23,33.5,5.85,43,10.38,7.54,24.21,7.67,37,7.51l48.55-.62c22.1-.29,44.94-.73,65-10,40.53-18.62,58.21-68.67,54.51-113.12,20.54,1.57,44.16-4.7,53.43-23.09,4.8-9.53,4.9-20.66,4.9-31.34ZM60.23,370.79h-14A29.24,29.24,0,0,1,17,341.58V255.52a29.24,29.24,0,0,1,29.21-29.2h14Zm379.94,7.56a22.88,22.88,0,0,1-22.86,22.85H400.67a22.88,22.88,0,0,1-22.85-22.85V218.75a22.88,22.88,0,0,1,22.85-22.85h16.64a22.88,22.88,0,0,1,22.86,22.85ZM293.39,494H269.6a16.24,16.24,0,0,1,0-32.48h23.79a16.24,16.24,0,0,1,0,32.48Zm205.2-152.4a29.24,29.24,0,0,1-29.2,29.21h-14V226.32h14a29.23,29.23,0,0,1,29.2,29.2Z"/></g></g></g></svg>