<svg xmlns="http://www.w3.org/2000/svg" viewBox="0 0 64 64"><defs><style>.cls-1{isolation:isolate;}.cls-2,.cls-3{fill:#fff;}.cls-2{fill-rule:evenodd;}.cls-3{opacity:0.36;}</style></defs><title>like</title><g id="Shape_1" data-name="Shape 1" class="cls-1"><g id="Shape_1-2" data-name="Shape 1"><path class="cls-2" d="M267.38,264.54a3.56,3.56,0,0,0,.39-2.24,3.7,3.7,0,0,0,1.33-3,3.6,3.6,0,0,0-.24-1.18,3.62,3.62,0,0,0,.78-1.71v-.86a3.73,3.73,0,0,0-.72-1.77,3.13,3.13,0,0,0-.75-3.6c-.93-.85-2.51-1.23-4.7-1.12a17.13,17.13,0,0,0-2.88.37h0l-.92.18a10.34,10.34,0,0,1,.73-3.4c.82-2.49.78-4.4-.15-5.68a3.71,3.71,0,0,0-3-1.44,1.47,1.47,0,0,0-1.13.51,3.9,3.9,0,0,0-.49,2.79c-.78,2.08-2.95,7.16-4.78,8.57l-.09.08a6.53,6.53,0,0,0-1.15,1.72,2.52,2.52,0,0,0-1.16-.29h-3.57a2.44,2.44,0,0,0-2.44,2.44v9.51a2.44,2.44,0,0,0,2.44,2.44h3.57a2.46,2.46,0,0,0,1.41-.45l1.37.17a58.77,58.77,0,0,0,7.81.42c.7.06,1.35.09,2,.09a13.44,13.44,0,0,0,2.73-.25A5.12,5.12,0,0,0,267.38,264.54Zm-18.07-.16a.85.85,0,0,1-.85.85h-3.57a.86.86,0,0,1-.86-.86v-9.52a.86.86,0,0,1,.86-.85h3.57a.85.85,0,0,1,.85.85Zm9.83,1h-.08a58,58,0,0,1-7.62-.41h0l-.6-.07a2.24,2.24,0,0,0,.06-.52v-9.52a2.13,2.13,0,0,0-.12-.72,4.9,4.9,0,0,1,1.09-2c2.64-2.09,5.21-9.12,5.32-9.42a.68.68,0,0,0,0-.4,3.62,3.62,0,0,1,.08-1.69,2.06,2.06,0,0,1,1.65.79c.6.82.58,2.3-.07,4.25-1,3-1.06,4.55-.29,5.24a1.26,1.26,0,0,0,1.28.23c.36-.08.7-.15,1-.2l.08,0c1.8-.39,5-.63,6.14.39a1.68,1.68,0,0,1,.2,2.13.77.77,0,0,0,.14,1,2.29,2.29,0,0,1,.65,1.37,2.2,2.2,0,0,1-.74,1.58.78.78,0,0,0-.1,1,2.51,2.51,0,0,1,.27,1,2.33,2.33,0,0,1-1.1,2,.8.8,0,0,0-.27.91,2.07,2.07,0,0,1-.16,1.51,3.67,3.67,0,0,1-2.59,1.48A15.38,15.38,0,0,1,259.14,265.38Z" transform="translate(-224.05 -223.05)"/></g><circle class="cls-3" cx="32" cy="32" r="32"/></g></svg>