<svg xmlns="http://www.w3.org/2000/svg" viewBox="0 0 64 64"><defs><style>.cls-1{isolation:isolate;}.cls-2,.cls-3{fill:#fff;}.cls-2{opacity:0.36;}.cls-3{fill-rule:evenodd;}</style></defs><title>lock</title><g id="Shape_1" data-name="Shape 1" class="cls-1"><circle class="cls-2" cx="32" cy="32" r="32"/><g id="Shape_1-2" data-name="Shape 1"><path class="cls-3" d="M267.2,514.92h-.41v-3.64a8.56,8.56,0,1,0-17.12,0,.79.79,0,0,0,1.57,0,7,7,0,0,1,14,0v3.64h-16a1.52,1.52,0,0,0-1.52,1.52v9.75a4.54,4.54,0,0,0,4.54,4.53h11.89a4.54,4.54,0,0,0,4.54-4.53v-9.75A1.52,1.52,0,0,0,267.2,514.92Zm-.05,11.27a3,3,0,0,1-3,3H252.3a3,3,0,0,1-3-3v-9.7h17.82Zm-8.91-.32a2.93,2.93,0,1,0-2.93-2.93A2.93,2.93,0,0,0,258.24,525.87Zm0-4.3a1.37,1.37,0,1,1-1.37,1.37A1.37,1.37,0,0,1,258.24,521.57Z" transform="translate(-226.23 -484.95)"/></g></g></svg>