<svg xmlns="http://www.w3.org/2000/svg" viewBox="0 0 360 312"><defs><style>.cls-1{fill:none;}.cls-2{fill:#9fc6ea;}.cls-3{fill:#2c82c4;}</style></defs><title>Consolidate Management</title><g id="Слой_2" data-name="Слой 2"><g id="Слой_1-2" data-name="Слой 1"><path class="cls-1" d="M288,174V276h60V174a6,6,0,0,0-6-6H294A6,6,0,0,0,288,174Zm17.27,52.24,17-17a6,6,0,0,1,8.49,8.49l-17,17-.15.14a6,6,0,0,1-8.34-8.63Z"/><rect class="cls-1" x="144" y="240" width="12" height="36"/><path class="cls-1" d="M133.43,121.65a3.92,3.92,0,0,1,.33-.5l59.4-59.4a6,6,0,0,1,8.48,8.48l-59.4,59.41c-.08.09-.2.11-.29.2A17.69,17.69,0,0,1,144,138v42H276v-6a18,18,0,0,1,18-18h30V30a18,18,0,0,0-18-18H54A18,18,0,0,0,36,30v90h90A17.81,17.81,0,0,1,133.43,121.65ZM238.09,61.76a6,6,0,0,1,.15,8.48l-59.4,59.4-.14.15a6,6,0,1,1-8.34-8.63l59.4-59.4A6,6,0,0,1,238.09,61.76ZM168,24h24a6,6,0,0,1,0,12H168a6,6,0,0,1,0-12Z"/><path class="cls-1" d="M132,138a6,6,0,0,0-6-6H18a6,6,0,0,0-6,6V276H132ZM46.24,227a.67.67,0,0,1-.15.14,6,6,0,1,1-8.33-8.63L63.21,193a6,6,0,0,1,8.49,0c-1.09,3.1,1.07,6.63,0,8.49Zm61.46-25.45L82.24,227a.67.67,0,0,1-.15.14,6,6,0,1,1-8.33-8.63L99.21,193a6,6,0,0,1,8.49,8.49Z"/><path class="cls-2" d="M12,294a6,6,0,0,0,6,6H126a6,6,0,0,0,6-6v-6H12Z"/><rect class="cls-2" x="168" y="240" width="24" height="36"/><path class="cls-2" d="M144,294a18,18,0,0,1-1.1,6H239a18,18,0,0,0-17-12H144Z"/><path class="cls-2" d="M276,192H144v36H276Zm-95.88,24a6,6,0,1,1-.06-12h.06a6,6,0,0,1,0,12Z"/><path class="cls-2" d="M348,294v-6H288v6a6,6,0,0,0,6,6h48A6,6,0,0,0,348,294Z"/><path class="cls-3" d="M342,156h-6V30A30,30,0,0,0,306,0H54A30,30,0,0,0,24,30v90H18A18,18,0,0,0,0,138V294a18,18,0,0,0,18,18H246a6,6,0,0,0,6-6,30,30,0,0,0-30-30H204V240h72v54a18,18,0,0,0,18,18h48a18,18,0,0,0,18-18V174A18,18,0,0,0,342,156ZM288,294v-6h60v6a6,6,0,0,1-6,6H294A6,6,0,0,1,288,294Zm54-126a6,6,0,0,1,6,6V276H288V174a6,6,0,0,1,6-6ZM36,30A18,18,0,0,1,54,12H306a18,18,0,0,1,18,18V156H294a18,18,0,0,0-18,18v6H144V138a17.69,17.69,0,0,0-2.05-8.16c.09-.09.21-.11.29-.2l59.4-59.41a6,6,0,0,0-8.48-8.48l-59.4,59.4a3.92,3.92,0,0,0-.33.5A17.81,17.81,0,0,0,126,120H36ZM239,300H142.9a18,18,0,0,0,1.1-6v-6h78A18,18,0,0,1,239,300Zm-107-6a6,6,0,0,1-6,6H18a6,6,0,0,1-6-6v-6H132Zm24-18H144V240h12Zm12,0V240h24v36Zm-24-48V192H276v36ZM12,138a6,6,0,0,1,6-6H126a6,6,0,0,1,6,6V276H12Z"/><path class="cls-3" d="M71.7,193a6,6,0,0,0-8.49,0L37.76,218.48a6,6,0,1,0,8.33,8.63.67.67,0,0,0,.15-.14L71.7,201.52C72.77,199.66,70.61,196.13,71.7,193Z"/><path class="cls-3" d="M99.21,193,73.76,218.48a6,6,0,1,0,8.33,8.63.67.67,0,0,0,.15-.14l25.46-25.45A6,6,0,0,0,99.21,193Z"/><path class="cls-3" d="M170.21,129.64a6,6,0,0,0,8.49.15l.14-.15,59.4-59.4a6,6,0,0,0-8.48-8.48l-59.4,59.4A6,6,0,0,0,170.21,129.64Z"/><path class="cls-3" d="M313.61,234.87l.15-.14,17-17a6,6,0,0,0-8.49-8.49l-17,17a6,6,0,0,0,8.34,8.63Z"/><path class="cls-3" d="M180.12,204h-.06a6,6,0,1,0,.06,0Z"/><path class="cls-3" d="M168,36h24a6,6,0,0,0,0-12H168a6,6,0,0,0,0,12Z"/></g></g></svg>