<svg xmlns="http://www.w3.org/2000/svg" viewBox="0 0 258.83 384"><defs><style>.cls-1{fill:none;}.cls-2{fill:#9fc6ea;}.cls-3{fill:#2c82c4;}</style></defs><title>Слой 1</title><g id="Слой_2" data-name="Слой 2"><g id="Слой_1-2" data-name="Слой 1"><path class="cls-1" d="M70.34,83.63l.37-.11c-.12-.06-.25-.11-.37-.18Z"/><path class="cls-1" d="M137.52,216.32l19.89,14.13L174,197.3l-16-6.2Z"/><path class="cls-1" d="M182.2,93.6v25.11a13.23,13.23,0,0,0,6.5-3,12.67,12.67,0,0,0-6.5-22.12Z"/><path class="cls-1" d="M150.53,171.46a52.83,52.83,0,0,1-21,4.39,57,57,0,0,1-21.27-4v10.53l21.17,26.14,21.14-26.09Z"/><path class="cls-1" d="M100.81,191.12l-16,6.18,16.54,33.15c.94-.68,9.47-6.73,19.87-14.11Z"/><path class="cls-1" d="M129.49,164.59A41.53,41.53,0,0,0,171,123.14V82.31c-1.42-1.75-5.83-6.33-14-15.08-20.56,13.17-46,20.39-70.3,19v36.94C86.67,144.7,103.85,164.59,129.49,164.59Z"/><path class="cls-1" d="M64.54,106.15a12.72,12.72,0,0,0,10.88,12.56V93.88C69.53,95.25,64.54,100.14,64.54,106.15Z"/><path class="cls-2" d="M86.15,74.89c22.06,1.58,46-4.85,65.56-17.65a10,10,0,0,1,12.78,1.56c17.76,19.09,17.71,18,17.71,23.47a24.45,24.45,0,0,1,5.07,1V69.71a58.47,58.47,0,0,0-116.93,0V83.34c.12.07.25.12.37.18a28.15,28.15,0,0,1,5-1.1A10,10,0,0,1,86.15,74.89Z"/><polygon class="cls-2" points="129.39 369.99 150.95 346.28 134.67 250.08 124.12 250.08 107.84 346.28 129.39 369.99"/><polygon class="cls-2" points="136.41 238.83 140.69 232.38 129.39 224.35 118.09 232.38 122.38 238.83 136.41 238.83"/><path class="cls-3" d="M253.2,311.13a5.63,5.63,0,0,0-5.62,5.63v52.88a3.11,3.11,0,0,1-3.11,3.11H214.23V262A5.63,5.63,0,1,0,203,262V372.75H142.1l17.65-19.43a10.1,10.1,0,0,0,2.44-8.09l0-.17-16.82-99.35,4.54-6.82c2.5,1.78,4.43,3.49,8.05,3.49a9.87,9.87,0,0,0,8.82-5.45l17.73-35.55L224.89,217c1.46.63,22.69,10.19,22.69,35.43v38a5.63,5.63,0,0,0,11.25,0v-38c0-33.26-28.48-45.35-29.69-45.85l-.11,0-67.25-26V164.75a52.7,52.7,0,0,0,19.95-34.67,24.31,24.31,0,0,0,14.3-5.83,23.89,23.89,0,0,0,2.49-33.7V69.71a69.72,69.72,0,0,0-139.43,0V91.1a22.6,22.6,0,0,0-5.8,15.05,23.85,23.85,0,0,0,8.3,18.1,24.28,24.28,0,0,0,14.29,5.83A52.18,52.18,0,0,0,97,165.59v14.94l-67.18,26-.1,0C28.48,207.11,0,219.2,0,252.46V369.64A14.37,14.37,0,0,0,14.35,384H68a5.63,5.63,0,0,0,0-11.25H55.85V262a5.63,5.63,0,1,0-11.25,0V372.75H14.35a3.11,3.11,0,0,1-3.1-3.11V252.46c0-25.33,21.37-34.87,22.68-35.43l40.38-15.65,17.74,35.55a9.84,9.84,0,0,0,8.81,5.45c3.6,0,5.52-1.68,8.06-3.49l4.53,6.82L96.63,345.06a.86.86,0,0,1,0,.17A10.1,10.1,0,0,0,99,353.32l17.66,19.43H94.2a5.63,5.63,0,1,0,0,11.25H244.47a14.37,14.37,0,0,0,14.36-14.36V316.76A5.63,5.63,0,0,0,253.2,311.13ZM129.39,208.48l-21.17-26.14V171.81a57,57,0,0,0,21.27,4,52.83,52.83,0,0,0,21-4.39v10.93Zm-11.3,23.9,11.3-8,11.31,8-4.29,6.45h-14Zm6,17.7h10.55L151,346.28,129.39,370l-21.55-23.71ZM174,197.3l-16.54,33.15-19.89-14.13L158,191.1ZM75.72,82.42a28.15,28.15,0,0,0-5,1.1l-.37.11V69.71a58.47,58.47,0,0,1,116.93,0V83.25a24.45,24.45,0,0,0-5.07-1c0-5.43.05-4.38-17.71-23.47a10,10,0,0,0-12.78-1.56C132.12,70,108.21,76.47,86.15,74.89A10,10,0,0,0,75.72,82.42Zm113,33.3a13.23,13.23,0,0,1-6.5,3V93.6a12.67,12.67,0,0,1,6.5,22.12Zm-113.28,3a12.72,12.72,0,0,1-10.88-12.56c0-6,5-10.9,10.88-12.27Zm11.25,4.43V86.2c24.28,1.42,49.74-5.8,70.3-19,8.15,8.75,12.56,13.33,14,15.08v40.83a41.53,41.53,0,0,1-41.46,41.45C103.85,164.59,86.67,144.7,86.67,123.14Zm14.71,107.31L84.84,197.3l16-6.18,20.44,25.22C110.85,223.72,102.32,229.77,101.38,230.45Z"/></g></g></svg>