<svg xmlns="http://www.w3.org/2000/svg" viewBox="0 0 384.01 384"><defs><style>.cls-1{fill:none;}.cls-2{fill:#9fc6ea;}.cls-3{fill:#2c82c4;}</style></defs><title>Performance</title><g id="Слой_2" data-name="Слой 2"><g id="Слой_1-2" data-name="Слой 1"><path class="cls-1" d="M250.18,123.84a1,1,0,0,1,0-.17h0C250.19,123.72,250.19,123.78,250.18,123.84Z"/><path class="cls-1" d="M274.64,111.53c-.35-.37-.69-.75-1.06-1.12l-.17-.16a3.88,3.88,0,0,1-.15.36Z"/><path class="cls-1" d="M247.92,41.63c-49.95,24-104.59,67.62-144.48,146.93l-.43.86-1.41,2.85-1,2.1c-.32.65-.63,1.3-.94,1.95-.47,1-.94,2-1.4,3-.21.45-.41.89-.62,1.33-.54,1.18-1.08,2.35-1.61,3.53-.15.33-.3.65-.44,1-.57,1.27-1.14,2.54-1.7,3.82l-.36.84c-.56,1.29-1.12,2.59-1.67,3.89-.13.29-.25.59-.38.88-.52,1.26-1,2.51-1.56,3.78l-.45,1.09c-.48,1.18-1,2.36-1.43,3.55l-.54,1.36c-.1.24-.19.49-.29.73l21.27,21.28,27.67-49.72.72-1.31a6.43,6.43,0,0,1,2.37-2.43l.29-.15a3.74,3.74,0,0,1,.45-.22,6.27,6.27,0,0,1,2.51-.52h43.12a6.41,6.41,0,0,1,6.4,6.4h0V236.8h0a5.66,5.66,0,0,1-.06.82s0,.05,0,.07a5.88,5.88,0,0,1-.14.73s0,.08,0,.12a5,5,0,0,1-.22.65.31.31,0,0,1-.05.1c-.09.22-.19.43-.3.64l0,.06c-.13.21-.26.42-.41.62h0a6.34,6.34,0,0,1-1.71,1.59L137.11,275l21.81,21.81.82-.31,1.65-.66,3.47-1.4.4-.16c2.61-1.07,5.19-2.16,7.76-3.27l1.58-.68,2.53-1.12,2.54-1.13,2-.91c1-.48,2.09-1,3.13-1.44l1.35-.64c1.3-.61,2.59-1.22,3.87-1.84l.52-.25c85-41.35,129.21-98.91,152.19-146.57Zm34.71,137.79a55.2,55.2,0,1,1,0-78.06A55,55,0,0,1,282.63,179.42Z"/><path class="cls-2" d="M79.3,210.48q3.18-7.57,6.51-14.8c.08-.19.17-.37.25-.55q3.41-7.35,7-14.35l.7-1.37q1.48-2.88,3-5.72l1.6-3c.6-1.08,1.19-2.17,1.79-3.24,1.72-3.1,3.46-6.18,5.25-9.2l-38.64-2.57L37.81,229.59l16.5-12.37a6.46,6.46,0,0,1,5.1-1.16l16.29,3.26c0-.09.07-.17.1-.25,1-2.44,1.94-4.84,2.93-7.22Z"/><path class="cls-2" d="M179.19,233.2V204.8H146.24l-30.48,55.36a6.52,6.52,0,0,1-1.18,1.52l-8.92,16Z"/><path class="cls-2" d="M210.46,287.19c-2,1-3.93,2.07-5.92,3.1l-1.3.66q-7,3.58-14.44,7l-.43.19q-7.4,3.42-15.17,6.67l-.79.32c-2.55,1.06-5.12,2.11-7.74,3.14l3.26,16.29a6.41,6.41,0,0,1-1.15,5.1l-12.38,16.5,73.88-28.91-2.58-38.63c-3,1.76-6,3.48-9.08,5.19l-3.66,2Z"/><path class="cls-2" d="M371.14,12.89C355.89,12.68,311.6,14.33,260.4,36l87.94,87.94a292.83,292.83,0,0,0,15.85-49.35c0-.15.07-.3.1-.45.26-1.14.51-2.28.75-3.4.07-.32.13-.64.2-1q.28-1.41.57-2.79c.09-.48.19-1,.28-1.45.14-.73.28-1.45.41-2.17l.36-1.95.27-1.55c.14-.82.28-1.63.41-2.43,0-.32.11-.64.16-.95.15-1,.31-2,.45-2.9,0-.12,0-.23.05-.35A252.11,252.11,0,0,0,371.14,12.89Z"/><path class="cls-2" d="M213.63,110.41a42.39,42.39,0,1,0,61,1.12l-1.38-.92a3.88,3.88,0,0,0,.15-.36,42.44,42.44,0,0,0-59.78.16Zm51.74,17.26a6.4,6.4,0,0,1-9.05,0,17.78,17.78,0,0,0-6.1-4,1,1,0,0,0,0,.17c0-.06,0-.12,0-.18a18,18,0,1,0,6.12,29.46,6.4,6.4,0,1,1,9.05,9,30.79,30.79,0,1,1,0-43.55A6.4,6.4,0,0,1,265.37,127.67Z"/><path class="cls-2" d="M91.5,301.23a5.27,5.27,0,0,1-.49.22l-.23.11a5.89,5.89,0,0,1-.59.21l-.31.09-.6.12-.3,0c-.21,0-.41,0-.62,0h0a5,5,0,0,1-.67,0l-.4-.05-.54-.12-.49-.15-.48-.19-.33-.15a5.52,5.52,0,0,1-.66-.4l-.25-.18a6,6,0,0,1-.62-.51l0,0s0,0-.05-.05-.28-.33-.42-.49l-.22-.26a6,6,0,0,1-.41-.67,1.79,1.79,0,0,1-.13-.22,5.69,5.69,0,0,1-.32-.77c0-.06,0-.12-.07-.19a5.6,5.6,0,0,1-.19-.81c0-.07,0-.13,0-.19a7.36,7.36,0,0,1-.06-.81c0-.07,0-.15,0-.22a6,6,0,0,1,.07-.74c0-.1,0-.2,0-.3s.11-.42.17-.63.06-.26.1-.38.14-.31.21-.47.14-.33.22-.49l6-10.85a27.06,27.06,0,0,0-11.36-2.47,29.06,29.06,0,0,0-7.12.89A30.32,30.32,0,0,0,50.06,297L19.29,364.71,87,333.93a30.32,30.32,0,0,0,16.88-20.25,27.75,27.75,0,0,0-1.6-18.55Z"/><path class="cls-3" d="M383.68,6.16A6.4,6.4,0,0,0,377.83.32l-.38,0C371.74-.12,313.9-3.4,246.24,27.77a6.34,6.34,0,0,0-2,1.46C200,50.05,152,85.56,113,146L62.9,142.64a6.28,6.28,0,0,0-6.39,4.05L17.7,245.88a6.39,6.39,0,0,0,9.79,7.45l32.22-24.16,16.86,3.37L102,258l-7,12.52a40.41,40.41,0,0,0-27.87-2.78,43,43,0,0,0-28.75,24L.57,375A6.41,6.41,0,0,0,6.4,384a6.49,6.49,0,0,0,2.65-.58l83.24-37.84a43,43,0,0,0,24-28.75,40.3,40.3,0,0,0-3.19-28.68L125,281l26.48,26.48,3.36,16.86L130.67,356.5a6.39,6.39,0,0,0,5.12,10.24,6.76,6.76,0,0,0,2.33-.43l99.2-38.81a6.42,6.42,0,0,0,4.05-6.39L238,271c60.41-39,95.92-86.93,116.74-131.21a6.25,6.25,0,0,0,1.47-2C388,68.74,384,9.94,383.69,6.28,383.69,6.23,383.68,6.18,383.68,6.16ZM368.15,53.59c-.14.95-.3,1.92-.45,2.9-.05.31-.11.63-.16.95-.13.8-.27,1.61-.41,2.43l-.27,1.55-.36,1.95c-.13.72-.27,1.44-.41,2.17-.09.48-.19,1-.28,1.45q-.29,1.38-.57,2.79c-.07.32-.13.64-.2,1-.24,1.12-.49,2.26-.75,3.4,0,.15-.06.3-.1.45a292.83,292.83,0,0,1-15.85,49.35L260.4,36c51.2-21.67,95.49-23.32,110.74-23.11a252.11,252.11,0,0,1-2.94,40.35C368.18,53.36,368.17,53.47,368.15,53.59ZM75.7,219.32l-16.29-3.26a6.46,6.46,0,0,0-5.1,1.16l-16.5,12.37,28.91-73.87,38.64,2.57c-1.79,3-3.53,6.1-5.25,9.2-.6,1.07-1.19,2.16-1.79,3.24l-1.6,3q-1.5,2.84-3,5.72l-.7,1.37q-3.56,7-7,14.35c-.08.18-.17.36-.25.55q-3.33,7.22-6.51,14.8l-.57,1.37c-1,2.38-2,4.78-2.93,7.22C75.77,219.15,75.73,219.23,75.7,219.32Zm28.18,94.36A30.32,30.32,0,0,1,87,333.93L19.29,364.71,50.06,297a30.32,30.32,0,0,1,20.25-16.88,29.06,29.06,0,0,1,7.12-.89,27.06,27.06,0,0,1,11.36,2.47l-6,10.85c-.08.16-.14.33-.22.49s-.15.31-.21.47-.07.25-.1.38-.13.42-.17.63,0,.2,0,.3a6,6,0,0,0-.07.74c0,.07,0,.15,0,.22a7.36,7.36,0,0,0,.06.81c0,.06,0,.12,0,.19a5.6,5.6,0,0,0,.19.81c0,.07,0,.13.07.19a5.69,5.69,0,0,0,.32.77,1.79,1.79,0,0,0,.13.22,6,6,0,0,0,.41.67l.22.26c.14.16.27.34.42.49s0,0,.05.05l0,0a6,6,0,0,0,.62.51l.25.18a5.52,5.52,0,0,0,.66.4l.33.15.48.19.49.15.54.12.4.05a5,5,0,0,0,.67,0h0c.21,0,.41,0,.62,0l.3,0,.6-.12.31-.09a5.89,5.89,0,0,0,.59-.21l.23-.11a5.27,5.27,0,0,0,.49-.22l10.78-6.1A27.75,27.75,0,0,1,103.88,313.68Zm11.88-53.52,30.48-55.36h32.95v28.4l-73.53,44.49,8.92-16A6.52,6.52,0,0,0,115.76,260.16ZM225.7,278.64l2.58,38.63L154.4,346.18l12.38-16.5a6.41,6.41,0,0,0,1.15-5.1l-3.26-16.29c2.62-1,5.19-2.08,7.74-3.14l.79-.32q7.77-3.25,15.17-6.67l.43-.19q7.41-3.44,14.44-7l1.3-.66c2-1,4-2.06,5.92-3.1l2.5-1.35,3.66-2C219.68,282.12,222.72,280.4,225.7,278.64ZM190.52,283l-.52.25c-1.28.62-2.57,1.23-3.87,1.84l-1.35.64c-1,.49-2.08,1-3.13,1.44l-2,.91-2.54,1.13-2.53,1.12L173,291c-2.57,1.11-5.15,2.2-7.76,3.27l-.4.16-3.47,1.4-1.65.66-.82.31L137.11,275,189,242.22a6.34,6.34,0,0,0,1.71-1.59h0c.15-.2.28-.41.41-.62l0-.06c.11-.21.21-.42.3-.64a.31.31,0,0,0,.05-.1,5,5,0,0,0,.22-.65s0-.08,0-.12a5.88,5.88,0,0,0,.14-.73s0,0,0-.07a5.66,5.66,0,0,0,.06-.82h0V198.41h0a6.41,6.41,0,0,0-6.4-6.4H142.47a6.27,6.27,0,0,0-2.51.52,3.74,3.74,0,0,0-.45.22l-.29.15a6.43,6.43,0,0,0-2.37,2.43l-.72,1.31-27.67,49.72L87.19,225.07c.1-.24.19-.49.29-.73L88,223c.47-1.19,1-2.37,1.43-3.55l.45-1.09c.51-1.27,1-2.52,1.56-3.78.13-.29.25-.59.38-.88.55-1.3,1.11-2.6,1.67-3.89l.36-.84c.56-1.28,1.13-2.55,1.7-3.82.14-.33.29-.65.44-1,.53-1.18,1.07-2.35,1.61-3.53.21-.44.41-.88.62-1.33.46-1,.93-2,1.4-3,.31-.65.62-1.3.94-1.95l1-2.1,1.41-2.85.43-.86c39.89-79.31,94.53-123,144.48-146.93l94.79,94.79C319.73,184.08,275.52,241.64,190.52,283Z"/><path class="cls-3" d="M282.63,101.36a55.17,55.17,0,1,0,0,78.06A55.26,55.26,0,0,0,282.63,101.36Zm-9.05,9c.37.37.71.75,1.06,1.12a41.89,41.89,0,1,1-1.23-1.28Z"/><path class="cls-3" d="M221.82,118.62a30.79,30.79,0,0,0,43.55,43.55,6.4,6.4,0,1,0-9.05-9,18,18,0,1,1-6.12-29.46h0a17.78,17.78,0,0,1,6.1,4,6.4,6.4,0,1,0,9.05-9A30.82,30.82,0,0,0,221.82,118.62Z"/></g></g></svg>