<svg xmlns="http://www.w3.org/2000/svg" viewBox="0 0 473.12 473.81"><defs><style>.cls-1{fill:none;}.cls-2{fill:#9bc9ff;}.cls-3{fill:#2384d0;}</style></defs><title>Capa 1</title><g id="Слой_2" data-name="Слой 2"><g id="Capa_1" data-name="Capa 1"><path class="cls-1" d="M254.06,344.73l-.11.16q2.45,1.42,4.9,2.81l1.44.21c-1.81-1-3.71-1.92-5.68-2.9Z"/><path class="cls-1" d="M173.51,280.53l-.45-.5.4.51Z"/><path class="cls-2" d="M254,344.89l.11-.16a133.34,133.34,0,0,1-11.75-6.42c-24.45-15.47-47.16-34.54-68.8-57.78h0l-.4-.51q-9.92-10.68-19.55-22.52l-.1-.1c-15.2-19.3-25.2-35.5-32.3-52.7l-.3-.9c-1.8-5.7-3.4-14.1,5.2-22.7.1-.2.3-.3.5-.5,8.7-7.8,16.7-15.8,25.1-24.4,2.9-2.8,5.7-5.7,8.6-8.6,10.6-10.6,10.6-20.4,0-31l-27.3-27.3c-3.2-3.3-6.4-6.5-9.5-9.7-6.1-6.3-11.9-12.2-18-17.9l-.3-.3c-3.2-3.2-8.3-7-14.6-7-5.1,0-10.3,2.5-15.2,7.1l-34.1,34.1a45.9,45.9,0,0,0-13.8,29.7c-1.5,18.3,1.9,37.7,11.2,62.6,15.1,40.8,37.9,78.8,72,119.9,41.3,49.3,91,88.2,147.6,115.6,20.7,9.9,48.3,21.5,78,23.4,1.5.1,3.1.1,4.6.1,15.6,0,27.5-5.1,37.6-15.9a263,263,0,0,1,19.3-20c4.3-4.2,8.3-8,12.2-12.2-.1.1-.1,0,0,0,10.2-10.6,10.2-21.1-.1-31.3l-55.1-55.1-.2-.2c-3.1-3.4-8.2-7.3-14.4-7.3s-11.7,4.1-15.1,7.5l-34.2,34.2c-1.7,1.7-6.9,6.9-15.2,6.9a21.68,21.68,0,0,1-9.9-2.5c-.4-.2-.8-.5-1.2-.7-1.31-.82-2.74-1.61-4.22-2.4l-1.44-.21Q256.39,346.32,254,344.89Z"/><path class="cls-3" d="M374.11,293.51c-9.7-10.1-21.4-15.5-33.8-15.5s-24.1,5.3-34.2,15.4l-31.6,31.5c-2.6-1.4-5.2-2.7-7.7-4-3.6-1.8-7-3.5-9.9-5.3-29.6-18.8-56.5-43.3-82.3-75-12.5-15.8-20.9-29.1-27-42.6,8.2-7.5,15.8-15.3,23.2-22.8,2.8-2.8,5.6-5.7,8.4-8.5,21-21,21-48.2,0-69.2l-27.3-27.3c-3.1-3.1-6.3-6.3-9.3-9.5-6-6.2-12.3-12.6-18.8-18.6-9.7-9.6-21.3-14.7-33.5-14.7s-24,5.1-34,14.7l-.2.2-34,34.3a73.16,73.16,0,0,0-21.7,46.5c-2.4,29.2,6.2,56.4,12.8,74.2,16.2,43.7,40.4,84.2,76.5,127.6,43.8,52.3,96.5,93.6,156.7,122.7,23,10.9,53.7,23.8,88,26,2.1.1,4.3.2,6.3.2,23.1,0,42.5-8.3,57.7-24.8.1-.2.3-.3.4-.5,5.2-6.3,11.2-12,17.5-18.1,4.3-4.1,8.7-8.4,13-12.9,9.9-10.3,15.1-22.3,15.1-34.6s-5.3-24.3-15.4-34.3Zm-113.82,54.4c1.48.79,2.91,1.58,4.22,2.4.4.2.8.5,1.2.7a21.68,21.68,0,0,0,9.9,2.5c8.3,0,13.5-5.2,15.2-6.9l34.2-34.2c3.4-3.4,8.8-7.5,15.1-7.5s11.3,3.9,14.4,7.3l.2.2,55.1,55.1c10.3,10.2,10.3,20.7.1,31.3-3.9,4.2-7.9,8-12.2,12.2a263,263,0,0,0-19.3,20c-10.1,10.8-22,15.9-37.6,15.9-1.5,0-3.1,0-4.6-.1-29.7-1.9-57.3-13.5-78-23.4-56.6-27.4-106.3-66.3-147.6-115.6-34.1-41.1-56.9-79.1-72-119.9-9.3-24.9-12.7-44.3-11.2-62.6a45.9,45.9,0,0,1,13.8-29.7l34.1-34.1c4.9-4.6,10.1-7.1,15.2-7.1,6.3,0,11.4,3.8,14.6,7l.3.3c6.1,5.7,11.9,11.6,18,17.9,3.1,3.2,6.3,6.4,9.5,9.7l27.3,27.3c10.6,10.6,10.6,20.4,0,31-2.9,2.9-5.7,5.8-8.6,8.6-8.4,8.6-16.4,16.6-25.1,24.4-.2.2-.4.3-.5.5-8.6,8.6-7,17-5.2,22.7l.3.9c7.1,17.2,17.1,33.4,32.3,52.7l.1.1q9.65,11.87,19.55,22.52l.45.5c21.64,23.24,44.35,42.31,68.8,57.78a133.34,133.34,0,0,0,11.75,6.42l.55.28C256.58,346,258.48,347,260.29,347.91Z"/><path class="cls-3" d="M409.91,398.81c-.1,0-.1.1,0,0Z"/><path class="cls-3" d="M255.71,112.71a128.7,128.7,0,0,1,104.8,104.8,13.42,13.42,0,0,0,13.3,11.2,17.85,17.85,0,0,0,2.3-.2,13.51,13.51,0,0,0,11.1-15.6,155.62,155.62,0,0,0-126.8-126.8,13.57,13.57,0,0,0-15.6,11A13.35,13.35,0,0,0,255.71,112.71Z"/><path class="cls-3" d="M472.91,209A256.25,256.25,0,0,0,264.11.21a13.48,13.48,0,1,0-4.4,26.6,228.88,228.88,0,0,1,186.6,186.6,13.42,13.42,0,0,0,13.3,11.2,17.85,17.85,0,0,0,2.3-.2A13.25,13.25,0,0,0,472.91,209Z"/></g></g></svg>