<?xml version="1.0"?>
<svg xmlns="http://www.w3.org/2000/svg" xmlns:xlink="http://www.w3.org/1999/xlink" version="1.1" id="Layer_1" x="0px" y="0px" viewBox="0 0 512 512" style="enable-background:new 0 0 512 512;" xml:space="preserve" width="512px" height="512px" class=""><g><path style="fill:#2384D0" d="M446.81,493.969c2.261,4.775,1.301,10.448-2.388,14.225c-2.426,2.489-5.71,3.803-9.033,3.803  c-1.743,0-3.487-0.354-5.142-1.086l-84.553-37.646l-84.553,37.646c-3.272,1.453-7.011,1.453-10.283,0l-84.553-37.646L81.752,510.91  c-4.826,2.148-10.485,1.061-14.174-2.716c-3.689-3.777-4.649-9.45-2.388-14.225l67.498-142.779c1.289-2.741,3.525-4.914,6.279-6.152  l33.781-15.021L114.56,232.49c-0.139-0.227-0.265-0.467-0.392-0.707c-11.559-22.55-17.585-47.968-17.434-73.474  c0.253-41.752,16.701-81.205,46.325-111.07c29.625-29.877,68.939-46.641,110.691-47.222c42.978-0.606,83.492,15.69,114.077,45.858  s47.437,70.429,47.437,113.394c0,25.531-5.862,49.938-17.434,72.514c-0.126,0.24-0.253,0.48-0.392,0.707l-58.188,97.527  l33.579,14.945c2.805,1.188,5.129,3.373,6.481,6.228L446.81,493.969z M409.416,473.971l-50.936-107.747l-32.265-14.364L288.543,415  c-6.898,11.572-19.063,18.482-32.543,18.482s-25.645-6.91-32.543-18.482l-37.672-63.14l-32.252,14.364l-50.949,107.747  l58.579-26.087c3.272-1.453,7.011-1.453,10.283,0L256,485.53l84.553-37.646c3.272-1.453,7.011-1.453,10.283,0L409.416,473.971z   M375.521,219.907c9.614-18.886,14.477-39.276,14.477-60.639c0-36.143-14.174-70.025-39.908-95.405  c-25.734-25.38-59.83-39.061-95.999-38.581c-72.4,0.998-131.662,60.74-132.091,133.178c-0.126,21.64,4.737,42.321,14.477,61.447  l108.67,182.143c3.322,5.559,8.692,6.165,10.852,6.165c2.16,0,7.529-0.606,10.852-6.165L375.521,219.907z" data-original="#1E0478" class="" data-old_color="#2384d0"/><path style="fill:#9BC9FF" d="M358.479,366.223l50.936,107.747l-58.579-26.087c-3.272-1.453-7.011-1.453-10.283,0L256,485.53  l-84.553-37.646c-3.272-1.453-7.011-1.453-10.283,0l-58.579,26.087l50.949-107.747l32.252-14.364L223.457,415  c6.898,11.572,19.063,18.482,32.543,18.482c13.479,0,25.645-6.91,32.543-18.482l37.672-63.14L358.479,366.223z" data-original="#9B8CCC" class="active-path" data-old_color="#9bc9ff"/><path style="fill:#9BC9FF" d="M389.999,159.269c0,21.363-4.864,41.752-14.477,60.639L266.852,402.051  c-3.323,5.559-8.692,6.165-10.852,6.165c-2.16,0-7.529-0.606-10.852-6.165l-108.67-182.143  c-9.74-19.126-14.604-39.807-14.477-61.447c0.43-72.438,59.691-132.18,132.091-133.178c36.168-0.48,70.265,13.202,95.999,38.581  S389.999,123.125,389.999,159.269z M313.657,159.269c0-31.797-25.86-57.657-57.657-57.657c-31.785,0-57.657,25.86-57.657,57.657  c0,31.785,25.872,57.657,57.657,57.657C287.797,216.926,313.657,191.053,313.657,159.269z" data-original="#94E7EF" class="" data-old_color="#9bc9ff"/><path style="fill:#2384D0" d="M256,101.611c31.797,0,57.657,25.86,57.657,57.657c0,31.785-25.86,57.657-57.657,57.657  c-31.785,0-57.657-25.872-57.657-57.657C198.343,127.471,224.215,101.611,256,101.611z M288.391,159.269  c0-17.863-14.528-32.391-32.391-32.391c-17.851,0-32.391,14.528-32.391,32.391S238.15,191.66,256,191.66  C273.863,191.66,288.391,177.132,288.391,159.269z" data-original="#1E0478" class="" data-old_color="#2384d0"/><path style="fill:#FFFFFF" d="M256,126.877c17.863,0,32.391,14.528,32.391,32.391S273.863,191.66,256,191.66  c-17.851,0-32.391-14.528-32.391-32.391S238.15,126.877,256,126.877z" data-original="#FFFFFF" class=""/><style xmlns="" id="stylebot-global-css">@font-face {
  
  font-family: Helvetica;
  src: local('Arial');
}@font-face {
  
  font-family: Helvetica;
  
  font-weight: bold;
  
  font-weight: 700;
  src: local('Arial');
}@font-face {
  
  font-family: "Helvetica Neue";
  
  font-weight: bold;
  
  font-weight: 700;
  src: local('Arial');
}@font-face {
  
  font-family: "Helvetica Neue Custom";
  
  font-weight: bold;
  
  font-weight: 700;
  src: local('Arial');
}@font-face {
  
  font-family: "Helvetica Neue";
  src: local('Arial');
}@font-face {
  
  font-family: 'Helvetica Neue Custom';
  src: local('Arial');
}</style></g> </svg>
