<svg xmlns="http://www.w3.org/2000/svg" viewBox="0 0 64 64"><defs><style>.cls-1{isolation:isolate;}.cls-2,.cls-3{fill:#fff;}.cls-2{opacity:0.36;}.cls-3{fill-rule:evenodd;}</style></defs><title>plane</title><g id="Shape_1" data-name="Shape 1" class="cls-1"><circle class="cls-2" cx="32" cy="32" r="32"/><g id="Shape_1-2" data-name="Shape 1"><path class="cls-3" d="M268,319.11a.8.8,0,0,0-.89-.17l-26.4,11.57a.81.81,0,0,0-.08,1.44l9.21,5.22,5.46,9.3a.81.81,0,0,0,.7.4h0a.82.82,0,0,0,.7-.48L268.18,320A.8.8,0,0,0,268,319.11Zm-25.17,12.23,21-9.19-13.51,13.42Zm13.06,13-4.45-7.58L265,323.2Z" transform="translate(-224.03 -299)"/></g></g></svg>