<svg xmlns="http://www.w3.org/2000/svg" viewBox="0 0 359.14 359.32"><defs><style>.cls-1{fill:none;}.cls-2{fill:#9fc6ea;}.cls-3{fill:#2c82c4;}</style></defs><title>Слsdfой 1</title><g id="Слой_2" data-name="Слой 2"><g id="Слой_1-2" data-name="Слой 1"><path class="cls-1" d="M142.79,82.37l.27-.12v-1C143,81.64,142.89,82,142.79,82.37Z"/><path class="cls-1" d="M319.86,227.37a65.54,65.54,0,0,0-7.68-7.68,6,6,0,0,1-1.83-6.46l2.61-7.92a79.37,79.37,0,0,0-9-5.31l-5.64,6.3a6,6,0,0,1-6.5,1.64,65.1,65.1,0,0,0-10.46-2.81,6,6,0,0,1-4.8-4.68l-1.64-7.76H264.17l-1.63,7.76a6,6,0,0,1-4.81,4.68,64.24,64.24,0,0,0-10.45,2.81,6,6,0,0,1-6.5-1.64l-5.64-6.3a78.64,78.64,0,0,0-9,5.31l2.61,7.92a6,6,0,0,1-1.82,6.45,65.45,65.45,0,0,0-7.67,7.68,6,6,0,0,1-6.46,1.82l-7.93-2.61a79.42,79.42,0,0,0-5.3,9l6.29,5.64a6,6,0,0,1,1.65,6.5,65.3,65.3,0,0,0-2.82,10.45A6,6,0,0,1,200,263l-7.76,1.64v10.72L200,277a6,6,0,0,1,4.67,4.81,64.9,64.9,0,0,0,2.82,10.44,6,6,0,0,1-1.65,6.51l-6.29,5.64a78.43,78.43,0,0,0,5.3,9l7.92-2.6a6,6,0,0,1,6.46,1.82,65.45,65.45,0,0,0,7.68,7.67,6,6,0,0,1,1.82,6.46l-2.61,7.92a77.14,77.14,0,0,0,9,5.3l5.63-6.29a6,6,0,0,1,6.5-1.64,65.39,65.39,0,0,0,10.46,2.81,6,6,0,0,1,4.81,4.68l1.63,7.76h10.72l1.64-7.76a6,6,0,0,1,4.8-4.68,64,64,0,0,0,10.45-2.81,6,6,0,0,1,6.5,1.64l5.65,6.29a77.84,77.84,0,0,0,9-5.3l-2.6-7.92a6,6,0,0,1,1.81-6.45,65.54,65.54,0,0,0,7.68-7.68,6,6,0,0,1,6.45-1.82l7.93,2.6a77.84,77.84,0,0,0,5.3-9l-6.29-5.64a6,6,0,0,1-1.65-6.49,64.66,64.66,0,0,0,2.82-10.46,6,6,0,0,1,4.67-4.81l7.77-1.64V264.65L339.08,263a6,6,0,0,1-4.67-4.81,64.27,64.27,0,0,0-2.82-10.45,6,6,0,0,1,1.65-6.5l6.29-5.64a78,78,0,0,0-5.3-9l-7.92,2.61A6,6,0,0,1,319.86,227.37ZM269.53,324a54,54,0,1,1,54-54A54,54,0,0,1,269.53,324Z"/><path class="cls-1" d="M269.53,228a42,42,0,1,0,42,42A42,42,0,0,0,269.53,228Zm-1.39,63.85A6,6,0,0,1,263.8,294h-.27a6,6,0,0,1-4.24-1.75l-18-18,8.48-8.49,13.36,13.35,25.79-31,9.22,7.69Z"/><path class="cls-1" d="M77.53,48a30,30,0,1,0,30,30A30,30,0,0,0,77.53,48Z"/><polygon class="cls-1" points="125.53 272.9 146.3 264 125.53 255.1 125.53 272.9"/><path class="cls-1" d="M293.53,48a18,18,0,1,0,18,18A18,18,0,0,0,293.53,48Z"/><path class="cls-1" d="M336.33,55.7a45.56,45.56,0,0,0-2.26-7.23,6,6,0,0,1,.35-5.32l4.27-7.36q-1.45-2.25-3.13-4.38l-8,1.84a6,6,0,0,1-5.3-1.35,43.85,43.85,0,0,0-6-4.42,6,6,0,0,1-2.82-4.56l-.78-8.57c-1.61-.63-3.23-1.18-4.84-1.64l-5.5,6.38a6,6,0,0,1-4.54,2.09h-8.43a6,6,0,0,1-4.55-2.09l-5.49-6.38q-2.43.69-4.84,1.64l-.78,8.57a6,6,0,0,1-2.83,4.56,45.12,45.12,0,0,0-6,4.42,6,6,0,0,1-5.3,1.35l-8-1.84q-1.68,2.13-3.12,4.38l4.26,7.36a6,6,0,0,1,.36,5.31,46,46,0,0,0-2.27,7.24,5.92,5.92,0,0,1-3.42,4.16l-7.39,3.26v5.77l7.39,3.26a5.92,5.92,0,0,1,3.42,4.16A45.59,45.59,0,0,0,253,83.54a6,6,0,0,1-.36,5.32l-4.26,7.36a52.69,52.69,0,0,0,3.12,4.37l8-1.84a6,6,0,0,1,5.31,1.36,44.38,44.38,0,0,0,6,4.42,6,6,0,0,1,2.83,4.56l.78,8.57c1.61.63,3.23,1.18,4.84,1.64l5.49-6.39a6,6,0,0,1,4.55-2.08h8.43a6,6,0,0,1,4.54,2.08l5.5,6.39c1.61-.46,3.23-1,4.84-1.64l.78-8.57a6,6,0,0,1,2.82-4.56,43.85,43.85,0,0,0,6-4.42,5.92,5.92,0,0,1,5.3-1.35l8,1.84q1.68-2.13,3.13-4.38l-4.27-7.36a6,6,0,0,1-.35-5.32,45.56,45.56,0,0,0,2.26-7.23,6,6,0,0,1,3.43-4.16l7.38-3.26V63.12l-7.38-3.26A6,6,0,0,1,336.33,55.7ZM293.53,96a30,30,0,1,1,30-30A30,30,0,0,1,293.53,96Z"/><path class="cls-2" d="M143.06,73.76l-9.58-4.22a6,6,0,0,1-3.42-4.15,54.32,54.32,0,0,0-2.78-8.9,6,6,0,0,1,.36-5.31l5.49-9.46a67.47,67.47,0,0,0-4.7-6.56l-10.37,2.37a6,6,0,0,1-5.31-1.35,55,55,0,0,0-7.36-5.43,6,6,0,0,1-2.81-4.55l-1-11a66.7,66.7,0,0,0-7.34-2.49l-7.09,8.24A6.05,6.05,0,0,1,82.59,23H72.48a6.05,6.05,0,0,1-4.55-2.09l-7.1-8.24a67.25,67.25,0,0,0-7.33,2.49l-1,11a6,6,0,0,1-2.81,4.55,53.87,53.87,0,0,0-7.36,5.45A6,6,0,0,1,37,37.54L26.63,35.16a67.38,67.38,0,0,0-4.69,6.56l5.49,9.46a6,6,0,0,1,.35,5.31A56.32,56.32,0,0,0,25,65.39a6,6,0,0,1-3.42,4.15L12,73.76v8.49l9.58,4.22A6,6,0,0,1,25,90.62a56.32,56.32,0,0,0,2.78,8.9,6,6,0,0,1-.35,5.31l-5.49,9.46a67.38,67.38,0,0,0,4.69,6.56L37,118.47a6,6,0,0,1,5.32,1.35,53.49,53.49,0,0,0,7.35,5.44,6,6,0,0,1,2.81,4.55l1,11a68.15,68.15,0,0,0,7.34,2.49l7.1-8.24A6,6,0,0,1,72.48,133H82.59a6,6,0,0,1,4.55,2.09l7.09,8.24a68.15,68.15,0,0,0,7.34-2.49l1-11a6,6,0,0,1,2.82-4.55,55.13,55.13,0,0,0,7.36-5.45,6,6,0,0,1,5.31-1.35l10.37,2.38a67,67,0,0,0,4.7-6.56l-5.49-9.46a6,6,0,0,1-.36-5.31,54.32,54.32,0,0,0,2.78-8.9,6,6,0,0,1,3.42-4.15l9.31-4.1c.1-.37.19-.73.27-1.1ZM77.53,120a42,42,0,1,1,42-42A42,42,0,0,1,77.53,120Z"/><path class="cls-3" d="M3.57,64.36A6,6,0,0,0,0,69.85v16.3a6,6,0,0,0,3.57,5.5l10.48,4.61c.47,1.76,1,3.42,1.56,5l-5.82,10a6,6,0,0,0,0,5.93A78.88,78.88,0,0,0,20,131.51a6,6,0,0,0,5.81,1.85l11-2.52q1.92,1.53,4,3l1.06,11.66a6,6,0,0,0,3.46,4.9,77.37,77.37,0,0,0,16.44,5.52,6,6,0,0,0,5.77-2L75.22,145h4.62l7.69,8.93A6,6,0,0,0,92.07,156a6.26,6.26,0,0,0,1.23-.12,77.19,77.19,0,0,0,16.44-5.52,6,6,0,0,0,3.46-4.9l1.06-11.66c1.39-1,2.74-1.94,4-3l11,2.52a6,6,0,0,0,5.81-1.85,79.42,79.42,0,0,0,10.21-14.27,6,6,0,0,0,0-5.93l-5.82-10c.58-1.61,1.09-3.27,1.57-5l10.47-4.61a6,6,0,0,0,3.57-5.5V69.85a6,6,0,0,0-3.57-5.49L141,59.75c-.48-1.76-1-3.43-1.57-5l5.82-10a6,6,0,0,0,0-5.93A79.42,79.42,0,0,0,135.11,24.5a5.94,5.94,0,0,0-5.81-1.85l-11,2.52q-1.94-1.53-4-3L113.2,10.55a6,6,0,0,0-3.46-4.9A76.73,76.73,0,0,0,93.31.13a6,6,0,0,0-5.78,2L79.84,11H75.23l-7.7-8.93a6,6,0,0,0-5.77-2A76.82,76.82,0,0,0,45.32,5.65a6,6,0,0,0-3.45,4.9L40.8,22.2c-1.39.95-2.74,1.95-4,3l-11-2.52A6,6,0,0,0,20,24.5,78.88,78.88,0,0,0,9.75,38.77a6,6,0,0,0,0,5.93l5.82,10c-.58,1.6-1.09,3.27-1.56,5Zm139.22,18-9.31,4.1a6,6,0,0,0-3.42,4.15,54.32,54.32,0,0,1-2.78,8.9,6,6,0,0,0,.36,5.31l5.49,9.46a67,67,0,0,1-4.7,6.56l-10.37-2.38a6,6,0,0,0-5.31,1.35,55.13,55.13,0,0,1-7.36,5.45,6,6,0,0,0-2.82,4.55l-1,11a68.15,68.15,0,0,1-7.34,2.49l-7.09-8.24A6,6,0,0,0,82.59,133H72.48a6,6,0,0,0-4.55,2.09l-7.1,8.24a68.15,68.15,0,0,1-7.34-2.49l-1-11a6,6,0,0,0-2.81-4.55,53.49,53.49,0,0,1-7.35-5.44A6,6,0,0,0,37,118.47l-10.37,2.38a67.38,67.38,0,0,1-4.69-6.56l5.49-9.46a6,6,0,0,0,.35-5.31A56.32,56.32,0,0,1,25,90.62a6,6,0,0,0-3.42-4.15L12,82.25V73.76l9.58-4.22A6,6,0,0,0,25,65.39a56.32,56.32,0,0,1,2.78-8.9,6,6,0,0,0-.35-5.31l-5.49-9.46a67.38,67.38,0,0,1,4.69-6.56L37,37.54a6,6,0,0,0,5.32-1.35,53.87,53.87,0,0,1,7.36-5.45,6,6,0,0,0,2.81-4.55l1-11a67.25,67.25,0,0,1,7.33-2.49l7.1,8.24A6.05,6.05,0,0,0,72.48,23H82.59a6.05,6.05,0,0,0,4.55-2.09l7.09-8.24a66.7,66.7,0,0,1,7.34,2.49l1,11a6,6,0,0,0,2.81,4.55,55,55,0,0,1,7.36,5.43,6,6,0,0,0,5.31,1.35l10.37-2.37a67.47,67.47,0,0,1,4.7,6.56l-5.49,9.46a6,6,0,0,0-.36,5.31,54.32,54.32,0,0,1,2.78,8.9,6,6,0,0,0,3.42,4.15l9.58,4.22v8.49Z"/><path class="cls-3" d="M77.53,36a42,42,0,1,0,42,42A42,42,0,0,0,77.53,36Zm0,72a30,30,0,1,1,30-30A30,30,0,0,1,77.53,108Z"/><path class="cls-3" d="M355.57,53.72l-8.29-3.65c-.32-1.16-.68-2.28-1-3.36l4.62-8a6,6,0,0,0,0-5.94,67.08,67.08,0,0,0-8.63-12.06,5.94,5.94,0,0,0-5.81-1.85l-8.72,2c-.85-.67-1.73-1.32-2.63-1.94l-.85-9.25a6,6,0,0,0-3.45-4.9A65.69,65.69,0,0,0,306.88.13a6,6,0,0,0-5.78,2L295,9.18h-2.93L286,2.09a6,6,0,0,0-5.78-2A64.86,64.86,0,0,0,266.27,4.8a6,6,0,0,0-3.46,4.9L262,19c-.9.62-1.78,1.27-2.64,1.94l-8.72-2a6,6,0,0,0-5.81,1.85,67.1,67.1,0,0,0-8.62,12.07,6,6,0,0,0,0,5.93l4.61,8c-.37,1.09-.72,2.21-1.05,3.37l-8.28,3.65a6,6,0,0,0-3.58,5.49V72.79a6,6,0,0,0,3.58,5.5l8.28,3.65c.32,1.16.68,2.28,1.05,3.36l-4.61,8a6,6,0,0,0-.05,6,67.94,67.94,0,0,0,8.63,12.06,6,6,0,0,0,5.82,1.85l8.7-2c.86.67,1.75,1.32,2.65,2l.84,9.25a6,6,0,0,0,3.46,4.9,65.42,65.42,0,0,0,13.91,4.67,6,6,0,0,0,5.78-2l6.11-7.09H295l6.1,7.09a6,6,0,0,0,4.55,2.08,6.33,6.33,0,0,0,1.23-.12,65.13,65.13,0,0,0,13.92-4.67,6,6,0,0,0,3.45-4.9l.85-9.25c.9-.63,1.78-1.27,2.63-1.94l8.72,2a6,6,0,0,0,5.81-1.85,67.43,67.43,0,0,0,8.63-12.06,6,6,0,0,0,0-6l-4.62-8c.37-1.08.73-2.2,1-3.36l8.29-3.65a6,6,0,0,0,3.57-5.49V59.21A6,6,0,0,0,355.57,53.72Zm-8.43,15.17-7.38,3.26a6,6,0,0,0-3.43,4.16,45.56,45.56,0,0,1-2.26,7.23,6,6,0,0,0,.35,5.32l4.27,7.36q-1.45,2.25-3.13,4.38l-8-1.84a5.92,5.92,0,0,0-5.3,1.35,43.85,43.85,0,0,1-6,4.42,6,6,0,0,0-2.82,4.56l-.78,8.57c-1.61.63-3.23,1.18-4.84,1.64l-5.5-6.39a6,6,0,0,0-4.54-2.08h-8.43a6,6,0,0,0-4.55,2.08l-5.49,6.39c-1.61-.46-3.23-1-4.84-1.64l-.78-8.57a6,6,0,0,0-2.83-4.56,44.38,44.38,0,0,1-6-4.42,6,6,0,0,0-5.31-1.36l-8,1.84a52.69,52.69,0,0,1-3.12-4.37l4.26-7.36a6,6,0,0,0,.36-5.32,45.59,45.59,0,0,1-2.27-7.23,5.92,5.92,0,0,0-3.42-4.16l-7.39-3.26V63.12l7.39-3.26a5.92,5.92,0,0,0,3.42-4.16A46,46,0,0,1,253,48.46a6,6,0,0,0-.36-5.31l-4.26-7.36q1.44-2.25,3.12-4.38l8,1.84a6,6,0,0,0,5.3-1.35,45.12,45.12,0,0,1,6-4.42,6,6,0,0,0,2.83-4.56l.78-8.57q2.42-.94,4.84-1.64l5.49,6.38a6,6,0,0,0,4.55,2.09h8.43a6,6,0,0,0,4.54-2.09l5.5-6.38c1.61.46,3.23,1,4.84,1.64l.78,8.57a6,6,0,0,0,2.82,4.56,43.85,43.85,0,0,1,6,4.42,6,6,0,0,0,5.3,1.35l8-1.84q1.68,2.13,3.13,4.38l-4.27,7.36a6,6,0,0,0-.35,5.32,45.56,45.56,0,0,1,2.26,7.23,6,6,0,0,0,3.43,4.16l7.38,3.26Z"/><path class="cls-3" d="M293.53,36a30,30,0,1,0,30,30A30,30,0,0,0,293.53,36Zm0,48a18,18,0,1,1,18-18A18,18,0,0,1,293.53,84Z"/><path class="cls-3" d="M323.65,198.21a89.5,89.5,0,0,0-18.88-11,6,6,0,0,0-6.82,1.51l-6,6.68c-1.5-.46-3-.87-4.51-1.22l-1.83-8.7a6,6,0,0,0-5.87-4.76H259.3a6,6,0,0,0-5.87,4.76l-1.83,8.7c-1.5.35-3,.76-4.5,1.21l-6-6.67a6.05,6.05,0,0,0-6.82-1.52,90.12,90.12,0,0,0-18.88,11,6,6,0,0,0-2.09,6.66l2.75,8.39c-1.13,1.07-2.24,2.17-3.3,3.31l-8.38-2.76a6,6,0,0,0-6.67,2.08,90.44,90.44,0,0,0-11,18.89,6,6,0,0,0,1.52,6.82l6.67,6c-.45,1.49-.86,3-1.21,4.5L185,253.9a6,6,0,0,0-4.77,5.87v20.46a6,6,0,0,0,4.77,5.88l8.7,1.82c.35,1.51.76,3,1.21,4.51l-6.67,6a6,6,0,0,0-1.52,6.82,90.51,90.51,0,0,0,11,18.88,6,6,0,0,0,6.67,2.1l8.39-2.76c1.06,1.13,2.17,2.24,3.3,3.31l-2.75,8.38a6,6,0,0,0,2.08,6.66,89.75,89.75,0,0,0,18.89,11,6,6,0,0,0,6.82-1.52l6-6.67c1.5.46,3,.86,4.51,1.22l1.83,8.7a6,6,0,0,0,5.87,4.76h20.46a6,6,0,0,0,5.87-4.76l1.83-8.7c1.51-.36,3-.76,4.51-1.21l6,6.67a6,6,0,0,0,6.82,1.51,89.82,89.82,0,0,0,18.87-11,6,6,0,0,0,2.09-6.66L323,326.76c1.13-1.07,2.24-2.17,3.31-3.31l8.37,2.76a6,6,0,0,0,6.67-2.09,90.12,90.12,0,0,0,11-18.88,6,6,0,0,0-1.52-6.83l-6.67-6c.46-1.49.86-3,1.22-4.51l8.69-1.82a6,6,0,0,0,4.77-5.88V259.77a6,6,0,0,0-4.77-5.87l-8.69-1.83c-.36-1.5-.76-3-1.21-4.5l6.66-6a6,6,0,0,0,1.52-6.82,90.59,90.59,0,0,0-11-18.88,6,6,0,0,0-6.67-2.09l-8.38,2.76c-1.07-1.14-2.18-2.24-3.31-3.31l2.75-8.38A6,6,0,0,0,323.65,198.21Zm2.66,31,7.92-2.61a78,78,0,0,1,5.3,9l-6.29,5.64a6,6,0,0,0-1.65,6.5,64.27,64.27,0,0,1,2.82,10.45,6,6,0,0,0,4.67,4.81l7.77,1.64v10.71L339.08,277a6,6,0,0,0-4.67,4.81,64.66,64.66,0,0,1-2.82,10.46,6,6,0,0,0,1.65,6.49l6.29,5.64a77.84,77.84,0,0,1-5.3,9l-7.93-2.6a6,6,0,0,0-6.45,1.82,65.54,65.54,0,0,1-7.68,7.68,6,6,0,0,0-1.81,6.45l2.6,7.92a77.84,77.84,0,0,1-9,5.3l-5.65-6.29a6,6,0,0,0-6.5-1.64,64,64,0,0,1-10.45,2.81,6,6,0,0,0-4.8,4.68l-1.64,7.76H264.17l-1.63-7.76a6,6,0,0,0-4.81-4.68,65.39,65.39,0,0,1-10.46-2.81,6,6,0,0,0-6.5,1.64L235.14,340a77.14,77.14,0,0,1-9-5.3l2.61-7.92a6,6,0,0,0-1.82-6.46,65.45,65.45,0,0,1-7.68-7.67,6,6,0,0,0-6.46-1.82l-7.92,2.6a78.43,78.43,0,0,1-5.3-9l6.29-5.64a6,6,0,0,0,1.65-6.51,64.9,64.9,0,0,1-2.82-10.44A6,6,0,0,0,200,277l-7.76-1.63V264.65L200,263a6,6,0,0,0,4.67-4.81,65.3,65.3,0,0,1,2.82-10.45,6,6,0,0,0-1.65-6.5l-6.29-5.64a79.42,79.42,0,0,1,5.3-9l7.93,2.61a6,6,0,0,0,6.46-1.82,65.45,65.45,0,0,1,7.67-7.68,6,6,0,0,0,1.82-6.45l-2.61-7.92a78.64,78.64,0,0,1,9-5.31l5.64,6.3a6,6,0,0,0,6.5,1.64,64.24,64.24,0,0,1,10.45-2.81,6,6,0,0,0,4.81-4.68l1.63-7.76h10.72l1.64,7.76a6,6,0,0,0,4.8,4.68,65.1,65.1,0,0,1,10.46,2.81,6,6,0,0,0,6.5-1.64l5.64-6.3a79.37,79.37,0,0,1,9,5.31l-2.61,7.92a6,6,0,0,0,1.83,6.46,65.54,65.54,0,0,1,7.68,7.68A6,6,0,0,0,326.31,229.18Z"/><path class="cls-3" d="M269.53,216a54,54,0,1,0,54,54A54,54,0,0,0,269.53,216Zm0,96a42,42,0,1,1,42-42A42,42,0,0,1,269.53,312Z"/><rect class="cls-3" x="167.53" y="66" width="48" height="12"/><path class="cls-3" d="M163.89,258.49l-42-18a6,6,0,0,0-7.87,3.14,6.06,6.06,0,0,0-.49,2.37v12h-72V162h-12V264a6,6,0,0,0,6,6h78v12a6,6,0,0,0,6,6h0a6,6,0,0,0,2.36-.48l42-18a6,6,0,0,0,0-11ZM125.53,272.9V255.1L146.3,264Z"/><path class="cls-3" d="M263.13,279.11l-13.36-13.35-8.48,8.49,18,18a6,6,0,0,0,4.24,1.75h.27a6,6,0,0,0,4.34-2.15l30-36-9.22-7.69Z"/></g></g></svg>