<?xml version="1.0"?>
<svg xmlns="http://www.w3.org/2000/svg" height="512px" viewBox="0 -81 512 512" width="512px"><path d="m497 320.1875h-26.652344v-305.1875c0-8.285156-6.714844-15-15-15h-103.070312c-8.285156 0-15 6.714844-15 15v305.1875h-14.742188v-213.671875c0-8.28125-6.71875-15-15-15h-103.070312c-8.28125 0-15 6.71875-15 15v213.671875h-14.742188v-110.699219c0-8.28125-6.714844-15-15-15h-103.070312c-8.285156 0-15 6.71875-15 15v110.699219h-26.652344c-8.285156 0-15 6.714844-15 15s6.714844 15 15 15h482c8.285156 0 15-6.714844 15-15s-6.714844-15-15-15zm-425.347656 0v-95.695312h73.070312v95.695312zm147.8125 0v-198.671875h73.070312v198.671875zm147.8125 0v-290.1875h73.070312v290.1875zm0 0" fill="#378fd5"/></svg>
