<?xml version="1.0"?>
<svg xmlns="http://www.w3.org/2000/svg" height="512px" viewBox="0 0 512 512" width="512px"><path d="m451 212.484375v-16.484375c0-8.285156-6.714844-15-15-15h-15v-15c0-91.53125-74.019531-166-165-166s-165 74.46875-165 166v15h-15c-8.285156 0-15 6.714844-15 15v16.484375c-33.886719 6.769531-61 36.664063-61 73.515625 0 36.859375 27.121094 66.746094 61 73.515625v16.484375c0 8.285156 6.714844 15 15 15h60c8.285156 0 15-6.714844 15-15v-180c0-8.285156-6.714844-15-15-15h-15v-15c0-74.992188 60.5625-136 135-136s135 61.007812 135 136v15h-15c-8.285156 0-15 6.714844-15 15v180c0 8.285156 6.714844 15 15 15h15v15c0 24.933594-20.605469 46-45 46h-47.578125c-6.195313-17.457031-22.867187-30-42.421875-30-24.8125 0-45 20.1875-45 45s20.1875 45 45 45c19.554688 0 36.226562-12.542969 42.421875-30h47.578125c41.457031 0 75-34.535156 75-76v-15h15c8.285156 0 15-6.714844 15-15v-16.484375c33.886719-6.773437 61-36.664063 61-73.515625 0-36.859375-27.121094-66.746094-61-73.515625zm-421 73.515625c0-19.28125 13.167969-36.1875 31-42.429688v84.859376c-17.832031-6.242188-31-23.148438-31-42.429688zm91 75h-30v-150h30zm135 121c-8.269531 0-15-6.730469-15-15s6.730469-15 15-15 15 6.730469 15 15-6.730469 15-15 15zm165-121h-30v-150h30zm30-32.570312v-84.859376c17.832031 6.242188 31 23.148438 31 42.429688 0 19.285156-13.167969 36.1875-31 42.429688zm0 0" fill="#378fd5"/></svg>
